<svg id="svg" version="1.1" width="400" height="400" viewBox="0 0 400 400" xmlns="http://www.w3.org/2000/svg" xmlns:xlink="http://www.w3.org/1999/xlink"><g id="svgg"><path id="path0" d="M184.930 127.230 C 184.506 127.654,185.590 130.341,186.744 131.733 C 187.002 132.044,187.108 132.573,186.980 132.909 C 186.851 133.244,186.938 133.638,187.173 133.783 C 187.408 133.928,187.600 134.656,187.600 135.400 C 187.600 136.144,187.780 136.864,188.000 137.000 C 188.220 137.136,188.400 137.687,188.400 138.224 C 188.400 138.761,188.546 139.200,188.725 139.200 C 188.904 139.200,189.301 139.839,189.608 140.619 C 189.914 141.400,190.384 142.221,190.653 142.444 C 190.941 142.683,191.058 143.372,190.938 144.125 C 190.817 144.883,190.990 145.886,191.365 146.600 C 191.712 147.260,191.996 148.090,191.998 148.444 C 191.999 148.798,192.580 150.211,193.288 151.585 C 194.483 153.901,194.526 154.119,193.888 154.585 C 193.031 155.211,193.008 155.600,193.827 155.600 C 194.272 155.600,194.380 155.832,194.200 156.400 C 194.020 156.968,194.128 157.200,194.573 157.200 C 194.971 157.200,195.200 157.556,195.200 158.176 C 195.200 158.713,195.372 159.259,195.583 159.389 C 195.793 159.519,195.873 159.867,195.760 160.161 C 195.647 160.456,195.831 160.803,196.170 160.933 C 196.509 161.063,196.689 161.423,196.570 161.733 C 196.451 162.043,196.634 162.404,196.977 162.536 C 197.883 162.884,197.742 163.727,196.596 164.803 C 195.483 165.850,195.556 166.813,196.857 168.238 C 197.307 168.731,197.518 169.348,197.369 169.738 C 197.201 170.176,197.321 170.400,197.724 170.400 C 198.059 170.400,198.414 170.175,198.512 169.900 C 198.610 169.625,198.831 169.530,199.002 169.690 C 199.173 169.849,198.914 170.304,198.425 170.699 L 197.537 171.419 198.355 172.160 C 199.010 172.752,199.089 173.060,198.750 173.693 C 198.451 174.253,198.452 174.612,198.753 174.913 C 199.046 175.206,199.052 175.496,198.771 175.835 C 198.491 176.173,198.494 176.411,198.781 176.588 C 199.011 176.731,199.200 177.202,199.200 177.636 C 199.200 178.070,199.470 178.529,199.800 178.655 C 200.130 178.782,200.400 179.211,200.400 179.609 C 200.400 180.008,200.614 180.405,200.875 180.492 C 201.212 180.604,201.154 180.930,200.675 181.614 C 199.830 182.820,199.811 183.600,200.627 183.600 C 201.072 183.600,201.180 183.832,201.000 184.400 C 200.857 184.852,200.928 185.200,201.164 185.200 C 201.445 185.200,201.431 185.534,201.123 186.210 C 200.740 187.050,200.805 187.487,201.507 188.802 C 201.981 189.691,202.186 190.485,201.975 190.615 C 201.500 190.909,201.486 192.518,201.955 193.020 C 202.699 193.816,202.985 195.443,202.253 194.710 C 201.894 194.351,201.600 193.774,201.600 193.429 C 201.600 193.083,201.420 192.800,201.200 192.800 C 200.980 192.800,200.800 192.530,200.800 192.200 C 200.800 191.426,200.237 191.433,199.589 192.214 C 199.210 192.670,199.189 193.054,199.509 193.714 C 200.505 195.772,200.435 196.589,199.213 197.130 C 198.005 197.665,197.839 200.149,198.962 200.889 C 199.552 201.277,198.819 202.471,197.667 202.995 C 197.190 203.212,196.800 203.527,196.800 203.695 C 196.800 203.863,196.480 204.000,196.088 204.000 C 195.697 204.000,195.117 204.360,194.800 204.800 C 194.483 205.240,193.903 205.600,193.512 205.600 C 193.120 205.600,192.800 205.738,192.800 205.906 C 192.800 206.074,192.125 206.534,191.300 206.929 C 188.779 208.135,186.422 209.459,185.693 210.076 C 185.312 210.399,183.968 211.155,182.708 211.757 C 181.447 212.359,180.311 213.020,180.184 213.227 C 180.056 213.433,179.163 213.961,178.200 214.400 C 177.237 214.839,176.341 215.373,176.209 215.586 C 176.077 215.799,174.813 216.526,173.400 217.200 C 171.987 217.874,170.723 218.601,170.591 218.814 C 170.459 219.027,169.563 219.561,168.600 220.000 C 167.637 220.439,166.737 220.979,166.600 221.200 C 166.463 221.421,165.582 221.953,164.641 222.381 C 163.700 222.810,162.699 223.439,162.416 223.780 C 162.134 224.121,161.734 224.400,161.529 224.400 C 160.709 224.400,157.546 226.075,157.337 226.619 C 157.215 226.939,156.774 227.200,156.357 227.200 C 155.941 227.200,155.600 227.380,155.600 227.600 C 155.600 227.820,155.280 228.000,154.888 228.000 C 154.497 228.000,153.917 228.360,153.600 228.800 C 153.283 229.240,152.703 229.600,152.312 229.600 C 151.920 229.600,151.600 229.780,151.600 230.000 C 151.600 230.220,151.240 230.400,150.800 230.400 C 150.360 230.400,150.000 230.580,150.000 230.800 C 150.000 231.020,149.752 231.200,149.449 231.200 C 149.146 231.200,148.666 231.479,148.384 231.820 C 148.101 232.161,147.100 232.790,146.159 233.219 C 145.218 233.647,144.341 234.173,144.209 234.386 C 144.077 234.599,142.813 235.326,141.400 236.000 C 139.987 236.674,138.726 237.395,138.599 237.602 C 138.471 237.809,137.699 238.283,136.883 238.655 C 136.067 239.027,135.033 239.657,134.585 240.056 C 133.390 241.118,131.866 241.194,131.695 240.200 C 131.399 238.487,125.762 227.117,124.852 226.400 C 124.713 226.290,124.344 225.705,124.032 225.100 C 123.720 224.495,123.315 224.000,123.132 224.000 C 122.950 224.000,122.800 223.764,122.800 223.475 C 122.800 223.187,122.485 222.601,122.100 222.173 C 121.715 221.745,120.334 220.078,119.032 218.469 C 116.825 215.743,111.258 210.348,109.132 208.874 C 108.619 208.519,107.851 207.907,107.425 207.514 C 106.998 207.121,106.428 206.800,106.158 206.800 C 105.888 206.800,105.607 206.655,105.533 206.477 C 104.990 205.159,94.842 200.033,88.800 198.023 C 86.710 197.328,84.601 196.499,84.114 196.180 C 83.627 195.861,82.512 195.600,81.638 195.600 C 80.763 195.600,79.951 195.445,79.834 195.254 C 79.351 194.474,60.400 193.644,60.400 194.403 C 60.400 194.664,59.714 194.750,56.332 194.911 C 55.525 194.950,54.951 195.120,55.056 195.290 C 55.235 195.581,54.255 195.782,53.430 195.624 C 52.825 195.508,49.600 196.550,49.600 196.861 C 49.600 197.018,49.136 197.063,48.568 196.960 C 48.000 196.857,47.635 196.934,47.757 197.130 C 47.878 197.327,47.544 197.440,47.013 197.382 C 46.483 197.323,45.723 197.539,45.325 197.860 C 44.670 198.388,44.696 198.397,45.600 197.957 C 46.449 197.543,46.533 197.554,46.155 198.035 C 45.567 198.781,45.606 200.000,46.218 200.000 C 46.484 200.000,46.934 200.279,47.216 200.620 C 47.499 200.961,48.520 201.599,49.485 202.039 C 50.450 202.478,51.340 203.100,51.463 203.419 C 51.585 203.739,52.016 204.000,52.419 204.000 C 52.823 204.000,53.264 204.180,53.400 204.400 C 53.536 204.620,53.923 204.800,54.259 204.800 C 54.596 204.800,55.171 205.149,55.536 205.575 C 56.200 206.351,58.202 207.640,59.900 208.385 C 60.395 208.602,60.800 209.011,60.800 209.292 C 60.800 209.574,61.385 210.054,62.100 210.359 C 62.815 210.664,63.760 211.219,64.200 211.591 C 64.640 211.963,65.650 212.565,66.445 212.927 C 67.240 213.289,68.117 213.859,68.394 214.193 C 68.671 214.527,69.134 214.800,69.422 214.800 C 69.710 214.800,70.060 215.160,70.200 215.600 C 70.340 216.040,70.668 216.400,70.931 216.400 C 71.193 216.400,71.632 216.760,71.907 217.200 C 72.182 217.640,72.678 218.000,73.009 218.000 C 73.683 218.000,74.998 218.677,76.200 219.643 C 76.640 219.997,77.574 220.531,78.277 220.830 C 79.272 221.255,79.456 221.492,79.111 221.908 C 78.769 222.319,78.866 222.492,79.534 222.667 C 80.010 222.791,80.400 223.154,80.400 223.474 C 80.400 223.854,80.652 223.974,81.133 223.821 C 81.587 223.677,82.143 223.895,82.595 224.394 C 82.996 224.837,83.566 225.200,83.862 225.200 C 84.158 225.200,84.400 225.482,84.400 225.827 C 84.400 226.272,84.632 226.380,85.200 226.200 C 85.766 226.020,86.000 226.128,86.000 226.568 C 86.000 226.967,86.307 227.156,86.856 227.095 C 87.950 226.973,88.223 227.720,87.389 228.554 C 86.313 229.629,86.793 230.645,87.892 229.618 L 88.783 228.785 88.542 229.992 C 88.314 231.130,88.373 231.200,89.550 231.200 C 90.760 231.200,91.228 230.679,90.390 230.263 C 90.164 230.152,90.209 230.109,90.490 230.170 C 90.816 230.240,90.951 230.769,90.863 231.640 L 90.726 233.000 91.763 232.030 C 92.333 231.497,92.800 231.257,92.800 231.497 C 92.800 231.737,92.588 232.004,92.328 232.091 C 91.452 232.383,92.341 233.600,93.430 233.600 C 94.188 233.600,94.423 233.436,94.263 233.020 C 94.115 232.633,94.233 232.515,94.620 232.663 C 95.324 232.933,95.376 233.475,94.720 233.693 C 94.077 233.908,95.427 236.800,96.170 236.800 C 96.463 236.800,96.929 237.074,97.207 237.409 C 97.499 237.761,98.027 237.918,98.456 237.782 C 98.974 237.618,99.200 237.745,99.200 238.200 C 99.200 238.673,99.422 238.783,100.005 238.598 C 100.714 238.373,100.798 238.502,100.705 239.671 C 100.613 240.837,100.710 240.988,101.500 240.905 C 102.042 240.847,102.400 241.028,102.400 241.358 C 102.400 241.660,102.790 242.009,103.266 242.133 C 103.961 242.315,104.039 242.471,103.661 242.927 C 103.110 243.590,103.473 243.969,105.480 244.829 C 106.375 245.213,106.735 245.619,106.680 246.183 C 106.630 246.682,106.942 247.141,107.500 247.389 C 107.995 247.610,108.400 247.927,108.400 248.095 C 108.400 248.263,108.760 248.400,109.200 248.400 C 109.640 248.400,110.000 248.580,110.000 248.800 C 110.000 249.581,108.243 248.949,106.858 247.671 C 106.356 247.207,104.562 247.304,104.044 247.823 C 103.718 248.149,104.812 249.055,106.181 249.592 C 107.839 250.243,107.922 250.469,106.700 251.005 C 105.686 251.450,105.209 253.200,106.102 253.200 C 106.409 253.200,107.093 253.660,107.621 254.222 C 108.474 255.131,108.493 255.216,107.791 254.986 C 106.417 254.537,105.010 253.815,104.722 253.412 C 104.569 253.198,104.322 253.144,104.174 253.293 C 103.812 253.655,104.993 254.800,105.729 254.800 C 106.451 254.800,106.961 255.999,106.455 256.505 C 106.053 256.907,104.027 258.017,100.116 259.980 C 98.749 260.665,97.523 261.401,97.391 261.614 C 97.259 261.827,96.363 262.361,95.400 262.800 C 94.437 263.239,93.541 263.773,93.409 263.986 C 93.277 264.199,92.013 264.926,90.600 265.600 C 89.187 266.274,87.926 266.995,87.799 267.202 C 87.671 267.409,86.899 267.883,86.083 268.255 C 85.267 268.627,84.240 269.237,83.800 269.609 C 83.360 269.981,82.415 270.536,81.700 270.841 C 80.985 271.146,80.400 271.531,80.400 271.698 C 80.400 271.864,80.040 272.000,79.600 272.000 C 79.160 272.000,78.800 272.150,78.800 272.332 C 78.800 272.515,78.305 272.920,77.700 273.232 C 77.095 273.544,76.510 273.889,76.400 273.999 C 76.022 274.379,74.594 275.179,72.116 276.401 C 70.749 277.075,69.523 277.801,69.391 278.014 C 69.259 278.227,68.363 278.761,67.400 279.200 C 66.437 279.639,65.541 280.173,65.409 280.386 C 65.277 280.599,64.013 281.326,62.600 282.000 C 61.187 282.674,59.923 283.401,59.791 283.614 C 59.659 283.827,58.763 284.361,57.800 284.800 C 56.837 285.239,55.941 285.773,55.809 285.986 C 55.677 286.199,54.413 286.926,53.000 287.600 C 51.587 288.274,50.323 289.001,50.191 289.214 C 50.059 289.427,49.197 289.974,48.276 290.430 C 45.242 291.928,43.196 293.080,42.493 293.686 C 42.112 294.015,41.215 294.534,40.500 294.839 C 39.785 295.145,39.200 295.531,39.200 295.698 C 39.200 295.864,38.880 296.000,38.488 296.000 C 38.097 296.000,37.517 296.360,37.200 296.800 C 36.883 297.240,36.303 297.600,35.912 297.600 C 35.520 297.600,35.200 297.780,35.200 298.000 C 35.200 298.220,34.880 298.400,34.488 298.400 C 34.097 298.400,33.517 298.760,33.200 299.200 C 32.883 299.640,32.303 300.000,31.912 300.000 C 31.520 300.000,31.200 300.180,31.200 300.400 C 31.200 300.620,30.840 300.800,30.400 300.800 C 29.960 300.800,29.600 300.980,29.600 301.200 C 29.600 301.420,29.352 301.600,29.049 301.600 C 28.746 301.600,28.266 301.879,27.984 302.220 C 27.701 302.561,26.700 303.190,25.759 303.619 C 24.818 304.047,23.944 304.567,23.816 304.773 C 23.689 304.980,22.553 305.649,21.292 306.260 C 20.032 306.870,18.772 307.647,18.494 307.985 C 18.114 308.447,18.015 308.463,18.094 308.050 C 18.247 307.258,17.345 307.045,17.054 307.804 C 16.919 308.155,16.967 308.344,17.159 308.225 C 17.352 308.106,17.609 308.390,17.730 308.856 C 17.903 309.514,18.179 309.659,18.976 309.507 C 19.539 309.399,20.000 309.466,20.000 309.655 C 20.000 309.845,19.708 310.000,19.351 310.000 C 18.820 310.000,18.792 310.109,19.200 310.600 C 19.474 310.930,19.903 311.200,20.153 311.200 C 20.404 311.200,21.055 311.740,21.600 312.400 C 22.551 313.552,23.553 314.095,22.962 313.138 C 22.789 312.859,22.852 312.785,23.121 312.951 C 23.365 313.102,23.463 313.492,23.338 313.817 C 23.169 314.257,23.303 314.340,23.855 314.141 C 24.265 313.993,24.481 314.005,24.336 314.167 C 24.108 314.421,24.996 315.409,26.909 317.030 C 27.189 317.267,27.622 317.393,27.872 317.309 C 28.122 317.226,28.461 317.375,28.625 317.641 C 28.829 317.970,28.745 318.026,28.362 317.815 C 28.053 317.646,28.423 318.061,29.183 318.737 C 29.944 319.413,30.645 319.888,30.741 319.792 C 30.838 319.696,31.787 320.256,32.850 321.037 C 33.914 321.818,34.953 322.352,35.160 322.225 C 35.367 322.097,35.807 322.264,36.139 322.596 C 36.471 322.928,36.936 323.200,37.171 323.200 C 37.407 323.200,37.600 323.380,37.600 323.600 C 37.600 323.820,37.768 324.000,37.974 324.000 C 38.180 324.000,38.855 324.208,39.474 324.461 C 40.093 324.715,40.862 324.975,41.183 325.038 C 41.738 325.148,42.981 325.677,44.495 326.447 C 44.877 326.641,45.552 326.800,45.995 326.800 C 46.438 326.800,46.800 326.961,46.800 327.158 C 46.800 327.495,47.317 327.613,51.500 328.232 C 52.435 328.371,53.200 328.645,53.200 328.842 C 53.200 329.039,54.190 329.200,55.400 329.200 C 56.610 329.200,57.600 329.380,57.600 329.600 C 57.600 329.865,82.631 329.999,131.900 329.997 L 206.200 329.994 206.700 328.917 C 206.975 328.325,207.200 327.527,207.200 327.144 C 207.200 326.761,207.380 326.336,207.600 326.200 C 207.820 326.064,208.000 325.620,208.000 325.213 C 208.000 321.270,221.374 304.800,224.575 304.800 C 224.741 304.800,225.354 304.471,225.938 304.068 C 230.003 301.267,234.038 300.680,236.288 302.561 C 236.900 303.072,238.132 303.862,239.027 304.316 C 239.921 304.770,240.889 305.425,241.176 305.771 C 241.463 306.117,241.915 306.400,242.179 306.400 C 242.444 306.400,243.097 306.866,243.630 307.435 C 244.164 308.004,245.230 308.734,246.000 309.056 C 246.770 309.379,247.850 310.050,248.400 310.548 C 249.438 311.489,250.943 312.503,253.000 313.648 C 253.660 314.016,254.175 314.605,254.144 314.958 C 254.112 315.331,254.392 315.600,254.812 315.600 C 255.821 315.600,257.994 316.896,257.997 317.500 C 257.999 317.775,258.450 318.000,259.000 318.000 C 259.781 318.000,260.000 318.204,260.000 318.933 C 260.000 320.137,260.388 320.508,261.063 319.948 C 261.489 319.594,261.600 319.721,261.600 320.564 C 261.600 321.658,262.816 322.551,263.109 321.672 C 263.196 321.412,263.454 321.200,263.682 321.200 C 263.935 321.200,263.904 321.434,263.604 321.795 C 263.201 322.281,263.243 322.442,263.831 322.667 C 264.255 322.830,264.617 322.749,264.709 322.472 C 264.796 322.212,265.068 322.000,265.313 322.000 C 265.636 322.000,265.639 322.121,265.323 322.437 C 264.433 323.327,266.178 325.405,268.520 326.246 C 268.917 326.388,269.344 327.021,269.470 327.652 C 269.597 328.283,269.912 328.800,270.172 328.800 C 270.705 328.800,273.200 331.255,273.200 331.780 C 273.200 331.968,272.847 331.715,272.415 331.217 C 271.709 330.403,271.569 330.374,271.015 330.928 C 270.252 331.691,270.236 332.000,270.959 332.000 C 271.333 332.000,271.498 332.422,271.459 333.277 C 271.415 334.223,271.627 334.671,272.272 335.000 C 273.289 335.520,272.022 336.778,269.117 338.131 C 268.301 338.511,267.529 338.991,267.401 339.198 C 267.274 339.405,266.051 340.135,264.684 340.820 C 260.587 342.876,258.823 343.857,258.093 344.486 C 257.712 344.815,256.815 345.334,256.100 345.639 C 255.385 345.945,254.800 346.331,254.800 346.498 C 254.800 346.664,254.480 346.800,254.088 346.800 C 253.697 346.800,253.117 347.160,252.800 347.600 C 252.483 348.040,251.903 348.400,251.512 348.400 C 251.120 348.400,250.800 348.580,250.800 348.800 C 250.800 349.020,250.480 349.200,250.088 349.200 C 249.697 349.200,249.117 349.560,248.800 350.000 C 248.483 350.440,247.903 350.800,247.512 350.800 C 247.120 350.800,246.800 350.936,246.800 351.102 C 246.800 351.269,246.215 351.654,245.500 351.959 C 244.785 352.264,243.840 352.819,243.400 353.191 C 242.960 353.563,241.933 354.173,241.117 354.545 C 240.301 354.917,239.529 355.391,239.401 355.598 C 239.274 355.805,238.051 356.535,236.684 357.220 C 232.628 359.255,230.827 360.254,230.093 360.876 C 229.712 361.199,228.368 361.955,227.108 362.557 C 225.847 363.159,224.714 363.815,224.591 364.015 C 224.467 364.215,223.699 364.684,222.883 365.056 C 222.067 365.429,221.094 365.994,220.719 366.312 C 219.597 367.264,216.324 368.800,215.432 368.794 C 214.930 368.790,214.780 368.671,215.056 368.494 C 215.386 368.281,215.358 368.058,214.956 367.684 C 214.650 367.401,214.394 367.311,214.387 367.484 C 214.380 367.658,214.112 367.453,213.791 367.029 C 213.471 366.605,213.101 366.365,212.971 366.496 C 212.840 366.627,213.648 367.683,214.767 368.843 C 215.885 370.003,216.800 371.098,216.800 371.276 C 216.800 371.454,217.053 371.600,217.363 371.600 C 217.728 371.600,217.852 371.320,217.716 370.800 C 217.601 370.360,217.258 370.000,216.953 370.000 C 216.649 370.000,216.400 369.820,216.400 369.600 C 216.400 368.865,217.174 369.189,217.838 370.202 C 218.298 370.903,218.372 371.353,218.086 371.702 C 217.791 372.063,217.961 372.412,218.705 372.968 C 219.270 373.391,219.603 373.528,219.445 373.273 C 218.872 372.346,220.354 373.271,220.985 374.234 C 221.333 374.765,221.858 375.200,222.150 375.200 C 222.442 375.200,223.246 375.740,223.937 376.400 C 224.628 377.060,225.464 377.600,225.796 377.600 C 226.128 377.600,226.400 377.791,226.400 378.024 C 226.400 378.257,226.581 378.335,226.803 378.198 C 227.024 378.061,227.314 378.231,227.446 378.575 C 227.578 378.919,227.938 379.200,228.247 379.200 C 228.764 379.200,231.645 380.360,233.295 381.233 C 233.677 381.435,234.521 381.600,235.171 381.600 C 235.821 381.600,236.464 381.780,236.600 382.000 C 236.736 382.220,237.657 382.400,238.647 382.400 C 239.731 382.400,240.350 382.557,240.203 382.795 C 240.042 383.055,262.587 383.193,305.979 383.198 C 349.981 383.202,372.000 383.070,372.000 382.802 C 372.000 382.581,372.720 382.400,373.600 382.400 C 374.480 382.400,375.200 382.220,375.200 382.000 C 375.200 381.780,375.740 381.600,376.400 381.600 C 377.060 381.600,377.600 381.420,377.600 381.200 C 377.600 380.980,378.140 380.800,378.800 380.800 C 379.460 380.800,380.000 380.620,380.000 380.400 C 380.000 380.180,380.360 380.000,380.800 380.000 C 381.240 380.000,381.600 379.820,381.600 379.600 C 381.600 379.380,381.878 379.200,382.217 379.200 C 382.556 379.200,383.220 378.840,383.692 378.400 C 384.164 377.960,384.787 377.600,385.075 377.600 C 385.364 377.600,385.600 377.459,385.600 377.286 C 385.600 377.114,386.183 376.628,386.895 376.208 C 388.450 375.289,393.200 370.634,393.200 370.029 C 393.200 369.793,393.380 369.600,393.600 369.600 C 393.820 369.600,394.000 369.412,394.000 369.183 C 394.000 368.954,394.360 368.380,394.800 367.908 C 395.240 367.436,395.600 366.813,395.600 366.525 C 395.600 366.236,395.780 366.000,396.000 366.000 C 396.220 366.000,396.400 365.640,396.400 365.200 C 396.400 364.760,396.580 364.400,396.800 364.400 C 397.020 364.400,397.200 364.040,397.200 363.600 C 397.200 363.160,397.380 362.800,397.600 362.800 C 397.820 362.800,398.000 362.440,398.000 362.000 C 398.000 361.560,398.180 361.200,398.400 361.200 C 398.620 361.200,398.800 360.675,398.800 360.033 C 398.800 359.392,399.025 358.792,399.300 358.700 C 399.683 358.572,399.800 356.071,399.800 348.000 C 399.800 339.929,399.683 337.428,399.300 337.300 C 399.025 337.208,398.800 336.608,398.800 335.967 C 398.800 335.325,398.620 334.800,398.400 334.800 C 398.180 334.800,398.000 334.440,398.000 334.000 C 398.000 333.560,397.820 333.200,397.600 333.200 C 397.380 333.200,397.200 332.840,397.200 332.400 C 397.200 331.960,397.020 331.600,396.800 331.600 C 396.580 331.600,396.400 331.240,396.400 330.800 C 396.400 330.360,396.220 330.000,396.000 330.000 C 395.780 330.000,395.600 329.764,395.600 329.475 C 395.600 329.187,395.240 328.564,394.800 328.092 C 394.360 327.620,394.000 327.131,394.000 327.006 C 394.000 326.724,387.299 320.023,386.194 319.200 C 385.751 318.870,384.896 318.345,384.294 318.032 C 383.692 317.720,383.200 317.315,383.200 317.132 C 383.200 316.950,382.840 316.800,382.400 316.800 C 381.960 316.800,381.600 316.620,381.600 316.400 C 381.600 316.180,381.240 316.000,380.800 316.000 C 380.360 316.000,380.000 315.820,380.000 315.600 C 380.000 315.380,379.561 315.200,379.024 315.200 C 378.487 315.200,377.936 315.020,377.800 314.800 C 377.664 314.580,377.124 314.400,376.600 314.400 C 376.076 314.400,375.548 314.240,375.427 314.044 C 374.876 313.153,358.400 312.383,358.400 313.249 C 358.400 313.442,358.256 313.600,358.081 313.600 C 357.643 313.600,357.952 308.395,358.450 307.377 C 359.458 305.316,357.711 288.228,356.327 286.620 C 356.147 286.411,356.000 285.997,356.000 285.701 C 356.000 285.404,355.640 284.416,355.200 283.506 C 354.760 282.595,354.400 281.614,354.400 281.325 C 354.400 281.036,354.220 280.800,354.000 280.800 C 353.780 280.800,353.600 280.440,353.600 280.000 C 353.600 279.560,353.454 279.200,353.275 279.200 C 353.096 279.200,352.702 278.570,352.400 277.800 C 352.098 277.030,351.716 276.400,351.552 276.400 C 351.388 276.400,351.138 276.034,350.996 275.587 C 350.854 275.140,350.302 274.338,349.769 273.805 C 349.236 273.272,348.800 272.649,348.800 272.420 C 348.800 272.191,347.900 271.085,346.800 269.961 C 345.700 268.838,344.800 267.744,344.800 267.531 C 344.800 267.028,343.771 266.000,343.267 266.000 C 343.053 266.000,342.015 265.100,340.961 264.000 C 339.907 262.900,338.892 262.000,338.705 262.000 C 338.519 262.000,338.026 261.685,337.610 261.300 C 337.194 260.915,336.167 260.248,335.327 259.817 C 334.487 259.386,333.322 258.711,332.738 258.317 C 332.154 257.923,331.379 257.600,331.015 257.600 C 330.651 257.600,330.464 257.420,330.600 257.200 C 330.740 256.974,330.412 256.800,329.847 256.800 C 329.297 256.800,328.736 256.620,328.600 256.400 C 328.464 256.180,328.003 256.000,327.576 256.000 C 327.149 256.000,326.800 255.820,326.800 255.600 C 326.800 255.380,326.361 255.200,325.824 255.200 C 325.287 255.200,324.736 255.020,324.600 254.800 C 324.464 254.580,323.823 254.400,323.176 254.400 C 322.529 254.400,322.000 254.220,322.000 254.000 C 322.000 253.780,321.381 253.600,320.624 253.600 C 319.867 253.600,319.154 253.449,319.040 253.264 C 318.925 253.079,317.887 252.895,316.733 252.854 C 315.579 252.813,314.537 252.636,314.417 252.461 C 314.298 252.285,313.689 252.146,313.065 252.151 C 312.026 252.159,311.991 252.204,312.654 252.689 C 313.052 252.980,313.607 253.129,313.889 253.021 C 314.170 252.913,314.400 253.010,314.400 253.236 C 314.400 253.462,314.563 253.546,314.763 253.423 C 314.962 253.300,315.036 253.539,314.928 253.954 C 314.819 254.370,314.926 254.831,315.165 254.978 C 315.404 255.126,315.600 255.603,315.600 256.037 C 315.600 256.471,316.079 257.766,316.665 258.913 C 317.251 260.061,317.871 261.630,318.042 262.400 C 318.410 264.054,320.340 269.899,320.846 270.895 C 321.041 271.277,321.200 271.930,321.200 272.346 C 321.200 272.762,321.458 273.316,321.773 273.577 C 322.087 273.839,322.330 274.589,322.311 275.245 C 322.292 275.901,322.485 276.645,322.739 276.899 C 322.992 277.152,323.201 277.729,323.202 278.180 C 323.204 278.631,323.479 279.526,323.814 280.168 C 324.232 280.969,324.294 281.466,324.012 281.748 C 323.421 282.339,323.504 282.800,324.200 282.800 C 324.530 282.800,324.800 282.980,324.800 283.200 C 324.800 283.420,324.530 283.600,324.200 283.600 C 323.457 283.600,323.457 283.590,324.255 285.190 C 324.616 285.913,325.246 286.591,325.655 286.699 C 326.530 286.927,326.658 287.600,325.827 287.600 C 325.156 287.600,325.268 290.519,325.973 291.367 C 326.204 291.646,326.276 291.991,326.132 292.134 C 325.989 292.278,326.183 292.739,326.563 293.159 C 327.144 293.801,327.173 294.054,326.747 294.737 C 326.335 295.395,326.336 295.733,326.750 296.506 C 327.031 297.031,327.193 298.078,327.110 298.831 C 326.960 300.191,326.956 300.193,326.520 299.200 C 326.004 298.027,325.640 298.582,325.445 300.837 C 325.380 301.587,325.118 302.707,324.863 303.326 C 324.608 303.945,324.400 304.805,324.400 305.236 C 324.400 305.685,324.009 306.169,323.484 306.368 C 322.980 306.560,322.337 306.994,322.056 307.333 C 321.775 307.671,321.030 308.062,320.400 308.200 C 319.770 308.338,319.039 308.712,318.775 309.031 C 318.510 309.349,317.155 310.153,315.763 310.818 C 314.370 311.482,313.123 312.201,312.991 312.414 C 312.859 312.627,311.963 313.161,311.000 313.600 C 310.037 314.039,309.141 314.573,309.009 314.786 C 308.877 314.999,307.613 315.726,306.200 316.400 C 304.787 317.074,303.523 317.801,303.391 318.014 C 303.259 318.227,302.363 318.761,301.400 319.200 C 300.437 319.639,299.544 320.167,299.416 320.373 C 299.289 320.580,298.153 321.249,296.892 321.861 C 295.632 322.473,294.357 323.209,294.060 323.498 C 293.763 323.786,292.946 324.262,292.244 324.556 C 291.542 324.849,290.697 325.360,290.365 325.692 C 289.479 326.578,288.001 326.975,287.997 326.327 C 287.985 324.501,282.590 315.583,279.218 311.815 C 276.890 309.213,272.367 305.222,271.733 305.209 C 271.477 305.204,271.207 305.065,271.133 304.900 C 270.726 303.983,264.681 300.899,261.069 299.766 L 258.737 299.034 258.938 296.817 C 259.048 295.598,259.325 293.700,259.554 292.600 C 259.783 291.500,260.087 290.013,260.231 289.295 C 260.375 288.577,260.651 287.892,260.846 287.771 C 261.041 287.651,261.200 287.201,261.200 286.771 C 261.200 286.341,261.361 285.677,261.558 285.295 C 261.755 284.913,262.725 282.890,263.713 280.800 C 268.813 270.018,278.119 261.358,289.600 256.711 C 290.150 256.489,290.913 256.148,291.295 255.953 C 291.677 255.759,292.341 255.600,292.771 255.600 C 293.201 255.600,293.652 255.439,293.774 255.242 C 294.023 254.840,295.322 254.605,300.800 253.974 C 306.524 253.314,306.862 252.887,304.759 248.975 C 304.057 247.669,303.284 246.196,303.041 245.703 C 302.799 245.210,302.465 244.805,302.300 244.803 C 302.135 244.801,302.000 244.570,302.000 244.288 C 302.000 244.007,301.640 243.517,301.200 243.200 C 300.760 242.883,300.400 242.387,300.400 242.098 C 300.400 241.810,299.770 240.943,299.000 240.173 C 298.230 239.403,297.600 238.611,297.600 238.413 C 297.600 237.682,293.744 234.123,292.656 233.850 C 292.038 233.695,291.142 233.197,290.666 232.744 C 289.018 231.176,279.736 225.200,278.950 225.200 C 278.753 225.200,275.249 223.667,274.305 223.167 C 273.923 222.965,273.336 222.800,273.000 222.800 C 272.664 222.800,272.077 222.638,271.695 222.439 C 270.213 221.669,265.245 220.633,259.863 219.971 C 255.344 219.416,253.082 219.558,243.038 221.030 L 241.076 221.318 241.376 219.759 C 242.894 211.869,243.321 206.441,243.034 198.650 C 242.898 194.938,242.624 191.158,242.426 190.250 C 242.228 189.343,241.848 187.520,241.582 186.200 C 236.263 159.818,216.450 136.996,191.261 128.239 C 186.909 126.726,185.637 126.523,184.930 127.230 M196.400 198.593 C 196.400 199.540,198.172 202.510,198.322 201.815 C 198.415 201.384,198.291 200.964,198.046 200.882 C 197.801 200.800,197.600 200.465,197.600 200.138 C 197.600 199.811,197.330 199.273,197.000 198.943 C 196.670 198.613,196.400 198.456,196.400 198.593 M11.839 301.538 C 11.700 301.761,11.782 302.065,12.020 302.212 C 12.635 302.593,13.032 302.072,12.518 301.558 C 12.231 301.271,12.007 301.264,11.839 301.538 M270.400 334.629 C 270.400 335.053,271.636 336.097,271.867 335.867 C 271.992 335.741,271.817 335.360,271.476 335.019 C 270.841 334.384,270.400 334.224,270.400 334.629 M209.786 361.900 C 210.135 362.615,210.506 363.200,210.610 363.200 C 211.008 363.200,210.752 362.563,209.967 361.600 L 209.152 360.600 209.786 361.900 " stroke="none" fill="#d6ecfb" fill-rule="evenodd"></path><path id="path1" d="M38.600 337.600 C 38.464 337.820,37.913 338.000,37.376 338.000 C 36.839 338.000,36.400 338.180,36.400 338.400 C 36.400 338.620,36.137 338.800,35.815 338.800 C 35.176 338.800,32.310 341.366,27.857 345.925 C 26.286 347.533,23.515 350.366,21.700 352.219 C 19.885 354.072,18.400 355.861,18.400 356.194 C 18.400 356.527,18.220 356.800,18.000 356.800 C 17.780 356.800,17.600 357.160,17.600 357.600 C 17.600 358.040,17.420 358.400,17.200 358.400 C 16.974 358.400,16.800 359.533,16.800 361.000 C 16.800 362.467,16.974 363.600,17.200 363.600 C 17.420 363.600,17.600 364.140,17.600 364.800 C 17.600 365.460,17.780 366.000,18.000 366.000 C 18.220 366.000,18.400 366.276,18.400 366.613 C 18.400 367.409,20.991 370.000,21.787 370.000 C 22.124 370.000,22.400 370.180,22.400 370.400 C 22.400 370.620,23.120 370.800,24.000 370.800 C 24.880 370.800,25.600 370.980,25.600 371.200 C 25.600 371.420,26.129 371.600,26.776 371.600 C 27.423 371.600,28.064 371.420,28.200 371.200 C 28.336 370.980,28.966 370.800,29.601 370.800 C 31.874 370.800,33.610 369.352,42.640 359.929 C 43.762 358.758,45.601 356.990,46.727 356.000 C 47.853 355.010,48.780 353.975,48.787 353.700 C 48.794 353.425,48.935 353.199,49.100 353.197 C 49.636 353.191,50.400 351.077,50.400 349.600 C 50.400 348.808,50.616 347.944,50.880 347.680 C 51.253 347.307,51.253 347.093,50.880 346.720 C 50.616 346.456,50.400 345.466,50.400 344.520 C 50.400 343.574,50.250 342.800,50.068 342.800 C 49.885 342.800,49.481 342.305,49.170 341.700 C 48.503 340.401,46.809 338.801,46.100 338.800 C 45.825 338.800,45.600 338.620,45.600 338.400 C 45.600 338.180,45.060 338.000,44.400 338.000 C 43.740 338.000,43.200 337.820,43.200 337.600 C 43.200 337.380,42.221 337.200,41.024 337.200 C 39.827 337.200,38.736 337.380,38.600 337.600 M105.200 337.600 C 105.200 337.820,104.928 338.000,104.595 338.000 C 103.300 338.000,101.056 339.823,95.438 345.436 C 87.026 353.843,84.800 356.341,84.800 357.372 C 84.800 357.937,84.620 358.400,84.400 358.400 C 84.169 358.400,84.000 359.667,84.000 361.400 C 84.000 363.133,84.169 364.400,84.400 364.400 C 84.620 364.400,84.800 364.672,84.800 365.005 C 84.800 366.367,87.845 370.000,88.987 370.000 C 89.324 370.000,89.600 370.180,89.600 370.400 C 89.600 370.620,90.320 370.800,91.200 370.800 C 92.080 370.800,92.800 370.980,92.800 371.200 C 92.800 371.420,93.329 371.600,93.976 371.600 C 94.623 371.600,95.264 371.420,95.400 371.200 C 95.536 370.980,96.078 370.800,96.605 370.800 C 97.738 370.800,99.600 370.014,99.600 369.536 C 99.600 369.351,99.842 369.200,100.139 369.200 C 100.435 369.200,101.920 367.913,103.439 366.340 C 104.957 364.767,108.405 361.279,111.100 358.588 C 113.795 355.898,116.000 353.495,116.000 353.248 C 116.000 353.002,116.180 352.800,116.400 352.800 C 116.620 352.800,116.800 352.440,116.800 352.000 C 116.800 351.560,116.980 351.200,117.200 351.200 C 117.793 351.200,117.706 344.178,117.100 343.099 C 116.825 342.609,116.318 341.937,115.972 341.604 C 115.627 341.272,115.228 340.685,115.085 340.300 C 114.942 339.915,114.589 339.600,114.301 339.600 C 114.013 339.600,113.517 339.240,113.200 338.800 C 112.861 338.330,112.165 338.000,111.512 338.000 C 110.900 338.000,110.400 337.820,110.400 337.600 C 110.400 337.374,109.267 337.200,107.800 337.200 C 106.333 337.200,105.200 337.374,105.200 337.600 M172.400 337.600 C 172.400 337.820,171.900 338.000,171.288 338.000 C 170.635 338.000,169.939 338.330,169.600 338.800 C 169.283 339.240,168.778 339.600,168.479 339.600 C 167.742 339.600,152.800 354.670,152.800 355.412 C 152.800 355.736,152.620 356.000,152.400 356.000 C 152.180 356.000,152.000 356.360,152.000 356.800 C 152.000 357.240,151.820 357.600,151.600 357.600 C 151.361 357.600,151.200 359.133,151.200 361.400 C 151.200 363.667,151.361 365.200,151.600 365.200 C 151.820 365.200,152.000 365.475,152.000 365.811 C 152.000 366.604,155.396 370.000,156.189 370.000 C 156.525 370.000,156.800 370.160,156.800 370.356 C 156.800 370.752,159.146 371.253,161.000 371.253 C 162.854 371.253,165.200 370.752,165.200 370.356 C 165.200 370.160,165.484 370.000,165.831 370.000 C 166.809 370.000,184.000 352.659,184.000 351.673 C 184.000 351.219,184.180 350.736,184.400 350.600 C 184.620 350.464,184.800 348.923,184.800 347.176 C 184.800 345.325,184.633 344.000,184.400 344.000 C 184.180 344.000,184.000 343.635,184.000 343.189 C 184.000 342.247,180.710 338.800,179.811 338.800 C 179.475 338.800,179.200 338.620,179.200 338.400 C 179.200 338.180,178.851 338.000,178.424 338.000 C 177.997 338.000,177.536 337.820,177.400 337.600 C 177.264 337.380,176.083 337.200,174.776 337.200 C 173.459 337.200,172.400 337.378,172.400 337.600 " stroke="none" fill="#1791fc" fill-rule="evenodd"></path><path id="path2" d="M260.000 17.200 C 260.000 17.420,259.725 17.600,259.389 17.600 C 258.609 17.600,255.200 20.990,255.200 21.766 C 255.200 22.089,255.020 22.464,254.800 22.600 C 254.546 22.757,254.400 27.871,254.400 36.624 C 254.400 45.541,254.541 50.400,254.800 50.400 C 255.020 50.400,255.200 50.670,255.200 51.000 C 255.200 51.330,255.380 51.600,255.600 51.600 C 255.820 51.600,256.000 51.788,256.000 52.018 C 256.000 53.586,260.257 56.000,263.023 56.000 L 265.200 56.000 265.200 36.400 L 265.200 16.800 262.600 16.800 C 261.133 16.800,260.000 16.974,260.000 17.200 M171.600 53.977 C 171.270 54.159,170.460 54.553,169.800 54.854 C 168.518 55.438,166.800 56.949,166.800 57.494 C 166.800 57.675,173.038 64.054,180.661 71.669 L 194.523 85.513 195.461 84.575 C 195.978 84.059,196.400 83.358,196.400 83.018 C 196.400 82.678,196.580 82.400,196.800 82.400 C 197.020 82.400,197.200 82.040,197.200 81.600 C 197.200 81.160,197.380 80.800,197.600 80.800 C 197.831 80.800,198.000 79.533,198.000 77.800 C 198.000 76.067,197.831 74.800,197.600 74.800 C 197.380 74.800,197.200 74.350,197.200 73.800 C 197.200 73.093,196.235 71.795,193.900 69.360 C 185.508 60.611,179.820 55.200,179.015 55.200 C 178.713 55.200,178.407 55.031,178.333 54.825 C 178.260 54.618,177.712 54.385,177.115 54.306 C 176.518 54.228,175.903 54.037,175.748 53.882 C 175.365 53.499,172.343 53.568,171.600 53.977 M351.400 54.000 C 351.264 54.220,350.623 54.400,349.976 54.400 C 349.329 54.400,348.800 54.580,348.800 54.800 C 348.800 55.020,348.620 55.200,348.400 55.200 C 347.955 55.200,348.032 55.132,342.654 60.311 C 340.534 62.352,338.800 64.197,338.800 64.411 C 338.800 64.625,338.646 64.800,338.457 64.800 C 337.877 64.800,331.600 71.244,331.600 71.840 C 331.600 72.148,331.449 72.400,331.264 72.400 C 331.080 72.400,330.720 72.858,330.464 73.419 C 329.891 74.676,329.837 81.600,330.400 81.600 C 330.620 81.600,330.800 81.878,330.800 82.218 C 330.800 82.910,332.263 84.508,333.239 84.883 C 333.845 85.115,361.200 58.306,361.200 57.480 C 361.200 56.917,359.255 55.200,358.618 55.200 C 358.278 55.200,358.000 55.020,358.000 54.800 C 358.000 54.580,357.460 54.400,356.800 54.400 C 356.140 54.400,355.600 54.220,355.600 54.000 C 355.600 53.780,354.711 53.600,353.624 53.600 C 352.537 53.600,351.536 53.780,351.400 54.000 M253.600 68.800 C 253.600 69.026,252.467 69.200,251.000 69.200 C 249.533 69.200,248.400 69.374,248.400 69.600 C 248.400 69.820,247.500 70.000,246.400 70.000 C 245.300 70.000,244.400 70.180,244.400 70.400 C 244.400 70.620,243.680 70.800,242.800 70.800 C 241.920 70.800,241.200 70.980,241.200 71.200 C 241.200 71.420,240.660 71.600,240.000 71.600 C 239.340 71.600,238.800 71.780,238.800 72.000 C 238.800 72.220,238.260 72.400,237.600 72.400 C 236.940 72.400,236.400 72.580,236.400 72.800 C 236.400 73.020,235.860 73.200,235.200 73.200 C 234.540 73.200,234.000 73.380,234.000 73.600 C 234.000 73.820,233.638 74.000,233.195 74.000 C 232.752 74.000,232.077 74.159,231.695 74.353 C 231.313 74.548,230.550 74.893,230.000 75.121 C 227.025 76.355,222.582 78.558,222.467 78.856 C 222.393 79.045,221.988 79.200,221.567 79.200 C 221.145 79.200,220.800 79.380,220.800 79.600 C 220.800 79.820,220.530 80.000,220.200 80.000 C 219.870 80.000,219.600 80.180,219.600 80.400 C 219.600 80.620,219.345 80.800,219.033 80.800 C 218.722 80.800,218.407 80.967,218.333 81.170 C 218.260 81.374,217.938 81.599,217.618 81.670 C 217.298 81.742,216.615 82.205,216.100 82.700 C 215.585 83.195,215.005 83.600,214.810 83.600 C 214.616 83.600,214.219 83.831,213.929 84.113 C 213.638 84.395,212.770 85.062,212.000 85.594 C 211.230 86.127,210.309 86.886,209.953 87.281 C 209.597 87.676,209.188 88.000,209.044 88.000 C 208.900 88.000,207.826 88.945,206.658 90.100 C 205.489 91.255,203.636 93.010,202.540 94.000 C 201.443 94.990,200.108 96.427,199.573 97.193 C 199.038 97.960,198.143 99.040,197.585 99.593 C 197.026 100.147,196.131 101.230,195.595 102.000 C 195.060 102.770,194.479 103.580,194.305 103.800 C 193.337 105.024,192.000 107.303,192.000 107.729 C 192.000 108.001,191.640 108.483,191.200 108.800 C 190.760 109.117,190.400 109.697,190.400 110.088 C 190.400 110.480,190.220 110.800,190.000 110.800 C 189.780 110.800,189.600 111.070,189.600 111.400 C 189.600 111.730,189.420 112.000,189.200 112.000 C 188.980 112.000,188.800 112.360,188.800 112.800 C 188.800 113.240,188.620 113.600,188.400 113.600 C 188.180 113.600,188.000 113.960,188.000 114.400 C 188.000 114.840,187.820 115.200,187.600 115.200 C 187.380 115.200,187.200 115.560,187.200 116.000 C 187.200 116.440,187.020 116.800,186.800 116.800 C 186.580 116.800,186.400 117.160,186.400 117.600 C 186.400 118.040,186.220 118.400,186.000 118.400 C 185.780 118.400,185.600 118.749,185.600 119.176 C 185.600 119.603,185.420 120.064,185.200 120.200 C 184.556 120.598,184.720 122.400,185.400 122.400 C 185.730 122.400,186.000 122.055,186.000 121.633 C 186.000 120.001,189.900 122.446,189.984 124.131 C 189.993 124.313,190.765 125.163,191.700 126.020 C 193.183 127.380,193.288 127.580,192.524 127.589 C 192.042 127.595,191.544 127.433,191.417 127.228 C 191.291 127.023,190.198 126.732,188.988 126.581 C 187.779 126.430,186.691 126.148,186.571 125.953 C 186.451 125.759,185.908 125.600,185.364 125.600 C 184.820 125.600,184.271 125.330,184.145 125.000 C 184.018 124.670,183.747 124.400,183.543 124.400 C 181.862 124.400,184.580 126.060,188.077 127.168 C 215.413 135.832,236.009 158.555,241.582 186.200 C 241.848 187.520,242.228 189.343,242.426 190.250 C 242.624 191.158,242.898 194.938,243.034 198.650 C 243.320 206.421,242.887 211.943,241.386 219.700 C 241.073 221.316,242.453 221.775,244.600 220.769 C 245.160 220.506,244.812 220.465,243.445 220.630 C 241.548 220.859,241.497 220.838,241.738 219.933 C 243.385 213.764,244.072 203.303,243.338 195.600 C 242.505 186.857,242.369 185.848,241.961 185.420 C 241.763 185.211,241.600 184.457,241.600 183.744 C 241.600 183.031,241.420 182.336,241.200 182.200 C 240.980 182.064,240.800 181.571,240.800 181.105 C 240.800 180.303,240.275 178.376,239.573 176.600 C 239.246 175.773,238.028 172.347,236.943 169.200 C 236.601 168.210,236.159 167.229,235.961 167.020 C 235.762 166.811,235.600 166.316,235.600 165.920 C 235.600 165.524,235.390 165.200,235.133 165.200 C 234.877 165.200,234.789 165.078,234.938 164.929 C 235.086 164.780,235.707 165.136,236.316 165.719 C 237.197 166.563,237.741 166.755,238.979 166.658 C 240.038 166.574,240.752 166.752,241.215 167.215 C 241.868 167.868,245.687 168.046,246.282 167.452 C 246.403 167.331,247.013 167.496,247.638 167.820 C 248.741 168.390,253.591 168.317,255.200 167.705 C 255.530 167.580,256.115 167.516,256.500 167.564 C 256.885 167.611,257.200 167.463,257.200 167.234 C 257.200 166.953,257.517 166.962,258.176 167.262 C 258.967 167.622,259.280 167.578,259.833 167.024 C 260.292 166.565,260.855 166.421,261.558 166.583 C 262.341 166.765,262.451 166.724,262.000 166.418 C 261.318 165.957,261.337 165.947,263.080 165.862 C 263.784 165.828,264.585 165.575,264.860 165.300 C 265.135 165.025,265.774 164.800,266.280 164.800 C 266.786 164.800,267.200 164.620,267.200 164.400 C 267.200 164.180,267.451 164.000,267.757 164.000 C 268.064 164.000,268.425 163.711,268.561 163.358 C 268.700 162.996,269.063 162.815,269.397 162.944 C 269.742 163.076,270.162 162.844,270.408 162.385 C 270.639 161.953,271.195 161.600,271.643 161.600 C 272.493 161.600,273.095 161.103,273.845 159.783 C 274.090 159.352,274.582 158.998,274.940 158.996 C 275.835 158.990,279.898 154.893,280.595 153.294 C 280.908 152.576,281.483 151.866,281.873 151.717 C 283.020 151.277,285.200 148.890,285.200 148.075 C 285.200 147.662,285.560 146.998,286.000 146.600 C 286.440 146.202,286.801 146.039,286.801 146.238 C 286.802 146.437,287.184 145.970,287.650 145.200 C 288.116 144.430,288.745 143.656,289.048 143.480 C 289.352 143.304,289.600 142.927,289.600 142.642 C 289.600 142.357,289.950 141.807,290.377 141.421 C 290.805 141.034,291.266 140.208,291.403 139.586 C 291.638 138.515,292.783 137.107,292.815 137.851 C 292.823 138.043,293.183 137.445,293.616 136.523 C 294.048 135.601,294.586 134.732,294.810 134.594 C 295.330 134.273,297.596 129.302,297.613 128.445 C 297.621 128.090,298.159 127.080,298.809 126.200 C 299.459 125.320,300.365 123.792,300.822 122.805 C 301.279 121.818,302.001 120.686,302.426 120.289 C 302.852 119.893,303.200 119.216,303.200 118.784 C 303.200 118.353,303.467 118.000,303.792 118.000 C 304.118 118.000,304.493 117.505,304.625 116.900 C 304.983 115.258,305.671 113.476,306.208 112.800 C 306.470 112.470,307.002 111.210,307.390 110.000 C 307.778 108.790,308.249 107.530,308.437 107.200 C 309.256 105.758,309.945 104.112,310.194 103.000 C 310.341 102.340,310.694 101.530,310.976 101.200 C 311.259 100.870,311.603 100.000,311.742 99.268 C 311.880 98.535,312.355 97.475,312.796 96.914 C 313.257 96.328,313.600 95.288,313.600 94.478 C 313.600 93.700,313.833 92.779,314.118 92.431 C 315.247 91.055,316.093 87.721,315.564 86.729 C 315.114 85.884,315.129 85.850,315.735 86.349 C 316.307 86.821,316.400 86.808,316.400 86.249 C 316.400 85.857,316.068 85.600,315.563 85.600 C 315.063 85.600,314.641 85.279,314.517 84.804 C 314.403 84.367,314.170 84.095,314.000 84.200 C 313.830 84.305,313.468 84.123,313.196 83.796 C 312.924 83.468,312.443 83.200,312.127 83.200 C 311.811 83.200,311.664 83.020,311.800 82.800 C 311.936 82.580,311.801 82.400,311.499 82.400 C 311.198 82.400,310.557 82.033,310.075 81.584 C 309.594 81.136,309.200 80.854,309.200 80.957 C 309.200 81.061,308.282 80.528,307.160 79.773 C 306.038 79.018,304.883 78.400,304.593 78.400 C 304.304 78.400,304.007 78.258,303.933 78.084 C 303.753 77.657,299.328 75.600,298.589 75.600 C 298.265 75.600,298.000 75.420,298.000 75.200 C 298.000 74.980,297.460 74.800,296.800 74.800 C 296.140 74.800,295.600 74.620,295.600 74.400 C 295.600 74.180,295.240 74.000,294.800 74.000 C 294.360 74.000,294.000 73.820,294.000 73.600 C 294.000 73.380,293.460 73.200,292.800 73.200 C 292.140 73.200,291.600 73.020,291.600 72.800 C 291.600 72.580,291.161 72.400,290.624 72.400 C 290.087 72.400,289.536 72.220,289.400 72.000 C 289.264 71.780,288.533 71.600,287.776 71.600 C 287.019 71.600,286.400 71.420,286.400 71.200 C 286.400 70.980,285.680 70.800,284.800 70.800 C 283.920 70.800,283.200 70.620,283.200 70.400 C 283.200 70.180,282.401 70.000,281.424 70.000 C 280.447 70.000,279.536 69.820,279.400 69.600 C 279.264 69.380,278.094 69.200,276.800 69.200 C 275.506 69.200,274.336 69.020,274.200 68.800 C 274.046 68.550,270.129 68.400,263.776 68.400 C 257.259 68.400,253.600 68.544,253.600 68.800 M184.000 123.167 C 184.000 123.625,184.254 124.000,184.565 124.000 C 185.229 124.000,185.144 122.715,184.465 122.488 C 184.209 122.403,184.000 122.708,184.000 123.167 M367.716 143.933 C 365.666 144.582,362.682 147.350,361.828 149.395 C 361.004 151.367,360.948 155.507,361.754 154.838 C 362.156 154.504,367.471 154.386,381.054 154.409 L 399.800 154.440 399.800 151.353 C 399.800 149.239,399.642 148.214,399.300 148.100 C 399.025 148.008,398.800 147.695,398.800 147.404 C 398.800 146.718,395.020 144.000,394.066 144.000 C 393.663 144.000,393.222 143.889,393.087 143.754 C 392.552 143.219,369.456 143.382,367.716 143.933 M336.600 188.463 C 325.112 200.835,305.036 220.670,295.735 228.836 C 294.380 230.026,293.255 231.114,293.235 231.253 C 293.175 231.683,294.991 232.004,295.133 231.590 C 295.207 231.375,295.691 231.200,296.210 231.200 C 296.728 231.200,297.264 231.020,297.400 230.800 C 297.536 230.580,297.997 230.400,298.424 230.400 C 298.851 230.400,299.200 230.236,299.200 230.035 C 299.200 229.834,299.920 229.549,300.800 229.400 C 301.680 229.251,302.400 228.966,302.400 228.765 C 302.400 228.564,302.760 228.400,303.200 228.400 C 303.640 228.400,304.000 228.220,304.000 228.000 C 304.000 227.780,304.360 227.600,304.800 227.600 C 305.240 227.600,305.600 227.420,305.600 227.200 C 305.600 226.980,305.971 226.800,306.424 226.800 C 306.877 226.800,307.136 226.620,307.000 226.400 C 306.864 226.180,307.033 226.000,307.376 226.000 C 307.719 226.000,308.000 225.820,308.000 225.600 C 308.000 225.380,308.360 225.200,308.800 225.200 C 309.240 225.200,309.600 225.001,309.600 224.757 C 309.600 224.514,309.870 224.418,310.200 224.545 C 310.565 224.685,310.800 224.545,310.800 224.187 C 310.800 223.864,311.070 223.600,311.400 223.600 C 311.730 223.600,312.000 223.401,312.000 223.157 C 312.000 222.914,312.264 222.816,312.587 222.940 C 312.910 223.064,313.283 222.990,313.415 222.776 C 313.547 222.562,313.823 222.491,314.028 222.617 C 314.232 222.744,314.400 222.480,314.400 222.031 C 314.400 221.477,314.749 221.128,315.488 220.942 C 316.086 220.792,317.368 219.799,318.336 218.735 C 319.304 217.671,320.445 216.800,320.872 216.800 C 321.298 216.800,321.536 216.620,321.400 216.400 C 321.264 216.180,321.433 216.000,321.776 216.000 C 322.119 216.000,322.400 215.823,322.400 215.607 C 322.400 215.391,323.570 214.045,325.000 212.615 C 326.430 211.185,327.600 209.817,327.600 209.576 C 327.600 209.003,330.727 206.002,331.333 205.994 C 331.601 205.990,331.544 205.823,331.200 205.600 C 330.800 205.342,330.767 205.210,331.100 205.206 C 331.375 205.203,331.600 204.996,331.600 204.747 C 331.600 204.498,331.916 204.003,332.303 203.647 C 332.689 203.291,333.260 202.505,333.570 201.900 C 333.881 201.295,334.285 200.800,334.468 200.800 C 334.650 200.800,334.800 200.530,334.800 200.200 C 334.800 199.870,334.980 199.600,335.200 199.600 C 335.420 199.600,335.600 199.319,335.600 198.976 C 335.600 198.606,335.788 198.469,336.063 198.639 C 336.380 198.835,336.455 198.654,336.300 198.063 C 336.148 197.481,336.258 197.200,336.637 197.200 C 336.947 197.200,337.200 196.931,337.200 196.603 C 337.200 195.608,338.558 192.800,339.039 192.800 C 339.303 192.800,339.410 192.388,339.298 191.800 C 339.186 191.216,339.293 190.800,339.553 190.800 C 339.799 190.800,340.000 190.440,340.000 190.000 C 340.000 189.560,340.180 189.200,340.400 189.200 C 340.620 189.200,340.800 188.851,340.800 188.424 C 340.800 187.997,340.972 187.541,341.183 187.411 C 341.393 187.281,341.471 186.928,341.355 186.628 C 341.240 186.327,341.338 185.962,341.573 185.817 C 341.808 185.672,342.000 185.038,342.000 184.410 C 342.000 183.781,342.207 183.198,342.460 183.113 C 342.713 183.029,342.848 182.744,342.760 182.481 C 342.672 182.217,339.900 184.909,336.600 188.463 M337.200 219.600 C 337.200 219.820,336.660 220.000,336.000 220.000 C 335.340 220.000,334.800 220.180,334.800 220.400 C 334.800 220.620,334.564 220.800,334.275 220.800 C 333.709 220.800,332.000 222.245,332.000 222.723 C 332.000 222.931,357.783 248.925,359.829 250.781 C 360.095 251.022,362.000 248.949,362.000 248.417 C 362.000 248.188,362.180 248.000,362.400 248.000 C 362.620 248.000,362.800 247.561,362.800 247.024 C 362.800 246.487,362.980 245.936,363.200 245.800 C 363.420 245.664,363.600 244.393,363.600 242.976 C 363.600 241.525,363.425 240.400,363.200 240.400 C 362.980 240.400,362.797 239.995,362.793 239.500 C 362.780 237.946,349.978 224.143,349.043 224.676 C 348.799 224.815,348.720 224.794,348.867 224.630 C 349.210 224.248,347.966 222.774,347.529 223.044 C 347.348 223.156,347.200 222.961,347.200 222.611 C 347.200 222.261,346.885 221.858,346.500 221.715 C 346.115 221.572,345.509 221.128,345.153 220.728 C 344.797 220.327,344.043 220.000,343.477 220.000 C 342.910 220.000,342.336 219.820,342.200 219.600 C 342.064 219.380,340.883 219.200,339.576 219.200 C 338.259 219.200,337.200 219.378,337.200 219.600 M246.800 220.000 L 245.400 220.295 247.000 220.324 C 247.880 220.341,249.320 220.205,250.200 220.023 L 251.800 219.692 250.000 219.699 C 249.010 219.702,247.570 219.838,246.800 220.000 M260.000 220.020 C 260.990 220.197,262.430 220.333,263.200 220.324 L 264.600 220.308 263.000 219.977 C 262.120 219.795,260.680 219.658,259.800 219.673 L 258.200 219.700 260.000 220.020 M265.400 220.800 C 265.840 220.989,266.740 221.138,267.400 221.132 C 268.570 221.121,268.575 221.112,267.600 220.800 C 266.133 220.330,264.306 220.330,265.400 220.800 M269.200 221.600 C 269.530 221.813,270.160 221.978,270.600 221.966 L 271.400 221.944 270.600 221.600 C 269.404 221.086,268.405 221.086,269.200 221.600 M271.800 222.400 C 271.936 222.620,272.442 222.787,272.924 222.772 C 273.769 222.745,273.771 222.731,273.000 222.400 C 271.899 221.927,271.508 221.927,271.800 222.400 M274.174 223.157 C 274.324 223.401,274.761 223.600,275.144 223.600 C 275.527 223.600,276.011 223.751,276.220 223.936 C 276.429 224.121,277.230 224.520,278.000 224.823 C 280.957 225.986,288.590 230.771,290.726 232.800 C 291.833 233.851,292.307 233.657,291.303 232.564 C 288.871 229.917,272.947 221.172,274.174 223.157 " stroke="none" fill="#fbe697" fill-rule="evenodd"></path><path id="path3" d="M265.200 36.400 L 265.200 56.000 266.162 56.000 C 268.083 56.000,272.400 53.056,272.400 51.745 C 272.400 51.445,272.536 51.200,272.703 51.200 C 273.913 51.200,274.787 24.133,273.600 23.400 C 273.380 23.264,273.200 22.803,273.200 22.376 C 273.200 21.949,273.020 21.600,272.800 21.600 C 272.580 21.600,272.400 21.375,272.400 21.100 C 272.399 20.437,270.629 18.400,270.053 18.400 C 269.804 18.400,269.600 18.220,269.600 18.000 C 269.600 17.780,269.139 17.600,268.576 17.600 C 267.996 17.600,267.660 17.427,267.800 17.200 C 267.947 16.962,267.471 16.800,266.624 16.800 L 265.200 16.800 265.200 36.400 M166.432 57.700 C 166.414 58.085,166.175 58.401,165.900 58.403 C 165.625 58.405,165.175 58.891,164.900 59.483 C 164.299 60.776,164.215 67.600,164.800 67.600 C 165.020 67.600,165.200 67.868,165.200 68.195 C 165.200 69.236,180.921 85.600,181.921 85.600 C 182.184 85.600,182.400 85.751,182.400 85.936 C 182.400 86.414,184.262 87.200,185.395 87.200 C 185.922 87.200,186.464 87.380,186.600 87.600 C 186.736 87.820,187.366 88.000,188.000 88.000 C 188.634 88.000,189.264 87.820,189.400 87.600 C 189.536 87.380,190.166 87.200,190.800 87.200 C 191.434 87.200,192.064 87.020,192.200 86.800 C 192.336 86.580,192.777 86.400,193.181 86.400 C 195.165 86.400,193.744 84.729,180.572 71.578 C 173.005 64.022,166.735 57.652,166.638 57.420 C 166.542 57.189,166.449 57.315,166.432 57.700 M347.636 71.364 C 337.940 81.063,333.688 85.062,333.238 84.905 C 332.792 84.749,332.847 84.911,333.420 85.441 C 334.671 86.598,335.886 87.200,336.971 87.200 C 337.511 87.200,338.064 87.380,338.200 87.600 C 338.336 87.820,338.966 88.000,339.600 88.000 C 340.234 88.000,340.864 87.820,341.000 87.600 C 341.136 87.380,341.867 87.200,342.624 87.200 C 343.381 87.200,344.000 87.020,344.000 86.800 C 344.000 86.580,344.270 86.400,344.601 86.400 C 345.242 86.400,361.459 70.350,362.300 68.883 C 362.575 68.403,362.800 67.738,362.800 67.405 C 362.800 67.072,362.980 66.800,363.200 66.800 C 364.411 66.800,363.303 59.405,361.968 58.580 C 361.758 58.451,361.691 58.177,361.817 57.972 C 362.810 56.366,359.581 59.415,347.636 71.364 M316.432 86.149 C 316.404 86.800,316.313 86.826,315.735 86.349 C 315.129 85.850,315.114 85.884,315.564 86.729 C 316.093 87.721,315.247 91.055,314.118 92.431 C 313.833 92.779,313.600 93.700,313.600 94.478 C 313.600 95.288,313.257 96.328,312.796 96.914 C 312.355 97.475,311.880 98.535,311.742 99.268 C 311.603 100.000,311.259 100.870,310.976 101.200 C 310.694 101.530,310.341 102.340,310.194 103.000 C 309.945 104.112,309.256 105.758,308.437 107.200 C 308.249 107.530,307.778 108.790,307.390 110.000 C 307.002 111.210,306.470 112.470,306.208 112.800 C 305.671 113.476,304.983 115.258,304.625 116.900 C 304.493 117.505,304.118 118.000,303.792 118.000 C 303.467 118.000,303.200 118.353,303.200 118.784 C 303.200 119.216,302.852 119.893,302.426 120.289 C 302.001 120.686,301.279 121.818,300.822 122.805 C 300.365 123.792,299.459 125.320,298.809 126.200 C 298.159 127.080,297.621 128.090,297.613 128.445 C 297.596 129.302,295.330 134.273,294.810 134.594 C 294.586 134.732,294.048 135.601,293.616 136.523 C 293.183 137.445,292.823 138.043,292.815 137.851 C 292.783 137.107,291.638 138.515,291.403 139.586 C 291.266 140.208,290.805 141.034,290.377 141.421 C 289.950 141.807,289.600 142.357,289.600 142.642 C 289.600 142.927,289.352 143.304,289.048 143.480 C 288.745 143.656,288.116 144.430,287.650 145.200 C 287.184 145.970,286.802 146.437,286.801 146.238 C 286.801 146.039,286.440 146.202,286.000 146.600 C 285.560 146.998,285.200 147.662,285.200 148.075 C 285.200 148.890,283.020 151.277,281.873 151.717 C 281.483 151.866,280.908 152.576,280.595 153.294 C 279.898 154.893,275.835 158.990,274.940 158.996 C 274.582 158.998,274.090 159.352,273.845 159.783 C 273.095 161.103,272.493 161.600,271.643 161.600 C 271.195 161.600,270.639 161.953,270.408 162.385 C 270.162 162.844,269.742 163.076,269.397 162.944 C 269.063 162.815,268.700 162.996,268.561 163.358 C 268.425 163.711,268.064 164.000,267.757 164.000 C 267.451 164.000,267.200 164.180,267.200 164.400 C 267.200 164.620,266.786 164.800,266.280 164.800 C 265.774 164.800,265.135 165.025,264.860 165.300 C 264.585 165.575,263.784 165.828,263.080 165.862 C 261.337 165.947,261.318 165.957,262.000 166.418 C 262.451 166.724,262.341 166.765,261.558 166.583 C 260.855 166.421,260.292 166.565,259.833 167.024 C 259.280 167.578,258.967 167.622,258.176 167.262 C 257.517 166.962,257.200 166.953,257.200 167.234 C 257.200 167.463,256.885 167.611,256.500 167.564 C 256.115 167.516,255.530 167.580,255.200 167.705 C 253.591 168.317,248.741 168.390,247.638 167.820 C 247.013 167.496,246.403 167.331,246.282 167.452 C 245.687 168.046,241.868 167.868,241.215 167.215 C 240.752 166.752,240.038 166.574,238.979 166.658 C 237.741 166.755,237.197 166.563,236.316 165.719 C 235.707 165.136,235.086 164.780,234.938 164.929 C 234.789 165.078,234.877 165.200,235.133 165.200 C 235.390 165.200,235.600 165.524,235.600 165.920 C 235.600 166.316,235.758 166.811,235.951 167.020 C 236.286 167.383,237.346 170.136,238.638 174.000 C 238.969 174.990,239.386 176.160,239.565 176.600 C 240.253 178.296,240.800 180.292,240.800 181.105 C 240.800 181.571,240.980 182.064,241.200 182.200 C 241.420 182.336,241.600 183.031,241.600 183.744 C 241.600 184.457,241.763 185.211,241.961 185.420 C 242.369 185.848,242.505 186.857,243.338 195.600 C 244.071 203.285,243.384 213.770,241.747 219.900 C 241.462 220.967,241.311 220.955,245.600 220.200 C 253.410 218.824,264.225 219.594,271.976 222.077 C 278.494 224.165,288.797 229.800,291.427 232.716 C 292.225 233.601,295.600 233.686,295.600 232.821 C 295.600 232.669,296.500 232.300,297.600 232.000 C 298.700 231.700,299.600 231.308,299.600 231.128 C 299.600 230.947,299.960 230.800,300.400 230.800 C 300.840 230.800,301.201 230.665,301.203 230.500 C 301.207 230.141,303.144 229.200,303.880 229.200 C 304.166 229.200,304.400 229.064,304.400 228.898 C 304.400 228.731,304.940 228.356,305.600 228.064 C 306.871 227.501,307.204 226.800,306.200 226.800 C 305.870 226.800,305.600 226.980,305.600 227.200 C 305.600 227.420,305.240 227.600,304.800 227.600 C 304.360 227.600,304.000 227.780,304.000 228.000 C 304.000 228.220,303.640 228.400,303.200 228.400 C 302.760 228.400,302.400 228.564,302.400 228.765 C 302.400 228.966,301.680 229.251,300.800 229.400 C 299.920 229.549,299.200 229.834,299.200 230.035 C 299.200 230.236,298.851 230.400,298.424 230.400 C 297.997 230.400,297.536 230.580,297.400 230.800 C 297.264 231.020,296.728 231.200,296.210 231.200 C 295.691 231.200,295.207 231.375,295.133 231.590 C 294.991 232.004,293.175 231.683,293.235 231.253 C 293.255 231.114,294.380 230.026,295.735 228.836 C 305.036 220.670,325.112 200.835,336.600 188.463 C 339.900 184.909,342.672 182.217,342.760 182.481 C 342.848 182.744,342.713 183.029,342.460 183.113 C 342.207 183.198,342.000 183.781,342.000 184.410 C 342.000 185.038,341.808 185.672,341.573 185.817 C 341.338 185.962,341.240 186.327,341.355 186.628 C 341.471 186.928,341.393 187.281,341.183 187.411 C 340.972 187.541,340.800 187.997,340.800 188.424 C 340.800 188.851,340.620 189.200,340.400 189.200 C 340.180 189.200,340.000 189.560,340.000 190.000 C 340.000 190.440,339.820 190.800,339.600 190.800 C 339.380 190.800,339.200 191.160,339.200 191.600 C 339.200 193.124,340.750 191.864,341.046 190.099 C 341.092 189.823,341.595 188.663,342.165 187.520 C 342.734 186.378,343.200 185.118,343.200 184.721 C 343.200 184.325,343.380 184.000,343.600 184.000 C 343.820 184.000,344.000 183.460,344.000 182.800 C 344.000 182.140,344.180 181.600,344.400 181.600 C 344.620 181.600,344.800 181.060,344.800 180.400 C 344.800 179.740,344.980 179.200,345.200 179.200 C 345.420 179.200,345.600 178.660,345.600 178.000 C 345.600 177.340,345.780 176.800,346.000 176.800 C 346.220 176.800,346.400 176.181,346.400 175.424 C 346.400 174.667,346.580 173.936,346.800 173.800 C 347.020 173.664,347.200 172.753,347.200 171.776 C 347.200 170.799,347.380 170.000,347.600 170.000 C 347.822 170.000,348.000 168.933,348.000 167.600 C 348.000 166.267,348.178 165.200,348.400 165.200 C 348.657 165.200,348.800 161.075,348.800 153.624 C 348.800 146.337,348.652 141.956,348.400 141.800 C 348.180 141.664,348.000 140.494,348.000 139.200 C 348.000 137.906,347.820 136.736,347.600 136.600 C 347.380 136.464,347.200 135.643,347.200 134.776 C 347.200 133.909,347.020 133.200,346.800 133.200 C 346.580 133.200,346.400 132.480,346.400 131.600 C 346.400 130.720,346.220 130.000,346.000 130.000 C 345.780 130.000,345.600 129.370,345.600 128.600 C 345.600 127.830,345.420 127.200,345.200 127.200 C 344.980 127.200,344.800 126.660,344.800 126.000 C 344.800 125.340,344.620 124.800,344.400 124.800 C 344.180 124.800,344.000 124.440,344.000 124.000 C 344.000 123.560,343.820 123.200,343.600 123.200 C 343.380 123.200,343.200 122.660,343.200 122.000 C 343.200 121.340,343.020 120.800,342.800 120.800 C 342.580 120.800,342.400 120.440,342.400 120.000 C 342.400 119.560,342.236 119.200,342.035 119.200 C 341.834 119.200,341.549 118.480,341.400 117.600 C 341.251 116.720,340.966 116.000,340.765 116.000 C 340.564 116.000,340.440 115.865,340.489 115.700 C 340.623 115.251,339.451 112.800,339.102 112.800 C 338.936 112.800,338.800 112.440,338.800 112.000 C 338.800 111.560,338.664 111.200,338.498 111.200 C 338.331 111.200,337.940 110.615,337.628 109.900 C 337.316 109.185,336.732 108.309,336.330 107.953 C 335.929 107.597,335.600 107.078,335.600 106.800 C 335.600 106.522,335.251 105.991,334.825 105.622 C 334.399 105.252,333.994 104.703,333.925 104.402 C 333.856 104.102,333.305 103.321,332.700 102.668 C 332.095 102.016,331.600 101.314,331.600 101.109 C 331.600 100.905,330.880 100.046,330.000 99.200 C 329.120 98.354,328.400 97.469,328.400 97.231 C 328.400 96.994,328.220 96.800,328.000 96.800 C 327.780 96.800,327.600 96.614,327.600 96.387 C 327.600 95.934,324.966 93.171,324.740 93.386 C 324.663 93.459,324.368 93.267,324.084 92.960 C 323.801 92.652,323.711 92.397,323.884 92.394 C 324.058 92.391,323.750 92.151,323.200 91.861 C 322.650 91.572,322.260 91.079,322.333 90.767 C 322.407 90.455,322.346 90.320,322.199 90.468 C 321.961 90.706,320.884 89.956,319.375 88.500 C 319.090 88.225,318.747 88.000,318.612 88.000 C 318.223 88.000,316.932 86.659,316.686 86.000 C 316.518 85.547,316.455 85.584,316.432 86.149 M186.500 120.698 C 186.225 120.791,186.000 121.212,186.000 121.633 C 186.000 122.055,185.740 122.400,185.423 122.400 C 185.061 122.400,184.903 122.699,185.000 123.200 C 185.120 123.823,184.939 124.000,184.181 124.000 C 183.246 124.000,183.235 124.032,183.893 124.800 C 184.270 125.240,184.977 125.600,185.465 125.600 C 185.953 125.600,186.451 125.759,186.571 125.953 C 186.691 126.148,187.779 126.430,188.988 126.581 C 190.198 126.732,191.291 127.023,191.417 127.228 C 191.544 127.433,192.042 127.595,192.524 127.589 C 193.288 127.580,193.183 127.380,191.700 126.020 C 190.765 125.163,189.993 124.313,189.984 124.131 C 189.950 123.459,186.983 120.535,186.500 120.698 M361.690 154.870 C 361.102 155.458,361.034 157.200,361.600 157.200 C 361.820 157.200,362.000 157.475,362.000 157.811 C 362.000 158.604,365.396 162.000,366.189 162.000 C 366.525 162.000,366.800 162.180,366.800 162.400 C 366.800 162.620,367.340 162.800,368.000 162.800 C 368.660 162.800,369.200 162.980,369.200 163.200 C 369.200 163.457,373.333 163.600,380.800 163.600 C 388.267 163.600,392.400 163.457,392.400 163.200 C 392.400 162.980,393.080 162.800,393.912 162.800 C 394.965 162.800,395.598 162.557,396.000 162.000 C 396.317 161.560,396.866 161.200,397.221 161.200 C 397.575 161.200,398.120 160.705,398.432 160.100 C 398.745 159.495,399.225 158.762,399.500 158.471 C 399.775 158.181,400.000 157.156,400.000 156.194 L 400.000 154.444 381.090 154.412 C 366.658 154.387,362.065 154.495,361.690 154.870 M337.894 194.403 C 337.512 195.284,337.200 196.274,337.200 196.603 C 337.200 196.931,336.894 197.200,336.520 197.200 C 336.012 197.200,335.955 197.315,336.294 197.654 C 336.840 198.200,338.000 197.230,338.000 196.229 C 338.000 195.883,338.199 195.600,338.443 195.600 C 338.686 195.600,338.779 195.323,338.650 194.985 C 338.515 194.635,338.669 194.272,339.007 194.142 C 339.729 193.865,339.799 192.800,339.094 192.800 C 338.816 192.800,338.276 193.521,337.894 194.403 M335.600 198.976 C 335.600 199.319,335.420 199.600,335.200 199.600 C 334.980 199.600,334.800 199.780,334.800 200.000 C 334.800 200.655,335.373 200.456,335.896 199.619 C 336.203 199.127,336.239 198.747,335.992 198.595 C 335.776 198.462,335.600 198.633,335.600 198.976 M333.696 201.595 C 333.001 202.708,333.076 202.884,334.000 202.307 C 334.440 202.032,334.800 201.581,334.800 201.304 C 334.800 200.552,334.258 200.695,333.696 201.595 M332.100 203.798 C 331.825 204.111,331.600 204.539,331.600 204.750 C 331.600 204.961,331.375 205.224,331.100 205.335 C 330.810 205.452,330.784 205.550,331.039 205.568 C 331.630 205.611,333.200 204.219,333.200 203.653 C 333.200 203.042,332.709 203.107,332.100 203.798 M328.861 207.855 C 328.125 208.625,327.618 209.351,327.734 209.468 C 327.945 209.679,330.800 207.021,330.800 206.613 C 330.800 206.108,330.109 206.550,328.861 207.855 M323.900 213.657 C 321.785 215.937,322.028 216.393,324.200 214.221 C 325.190 213.231,326.000 212.326,326.000 212.211 C 326.000 211.675,325.277 212.173,323.900 213.657 M318.806 218.194 C 318.063 218.961,317.564 219.698,317.698 219.831 C 317.914 220.047,320.800 217.381,320.800 216.966 C 320.800 216.469,320.001 216.961,318.806 218.194 M314.900 221.065 C 314.625 221.176,314.400 221.523,314.400 221.837 C 314.400 222.307,314.541 222.319,315.200 221.907 C 316.435 221.136,316.220 220.532,314.900 221.065 M312.000 223.200 C 312.000 223.420,311.730 223.600,311.400 223.600 C 311.070 223.600,310.800 223.780,310.800 224.000 C 310.800 224.456,311.252 224.508,312.167 224.157 C 312.858 223.892,313.046 222.800,312.400 222.800 C 312.180 222.800,312.000 222.980,312.000 223.200 M331.426 223.157 C 331.276 223.401,331.260 223.600,331.392 223.600 C 331.524 223.600,331.264 223.994,330.816 224.475 C 329.916 225.441,329.547 233.200,330.400 233.200 C 330.620 233.200,330.800 233.520,330.800 233.912 C 330.800 234.303,331.160 234.883,331.600 235.200 C 332.040 235.517,332.400 235.922,332.400 236.101 C 332.400 236.504,346.326 250.400,346.730 250.400 C 346.891 250.400,347.283 250.760,347.600 251.200 C 347.917 251.640,348.497 252.000,348.888 252.000 C 349.280 252.000,349.600 252.180,349.600 252.400 C 349.600 253.256,356.988 252.873,358.764 251.925 C 359.811 251.366,360.232 250.944,359.930 250.757 C 359.669 250.595,353.211 244.220,345.578 236.589 C 337.346 228.360,331.589 222.895,331.426 223.157 M309.600 224.800 C 309.600 225.020,309.240 225.200,308.800 225.200 C 308.360 225.200,308.000 225.380,308.000 225.600 C 308.000 225.820,307.694 226.000,307.320 226.000 C 306.760 226.000,306.734 226.088,307.170 226.500 C 307.594 226.900,307.737 226.900,307.883 226.500 C 307.984 226.225,308.335 226.000,308.662 226.000 C 309.242 226.000,310.400 225.086,310.400 224.629 C 310.400 224.503,310.220 224.400,310.000 224.400 C 309.780 224.400,309.600 224.580,309.600 224.800 " stroke="none" fill="#fcc74a" fill-rule="evenodd"></path><path id="path4" d="M159.122 122.807 C 159.055 122.992,157.245 123.200,155.100 123.268 C 152.955 123.337,151.200 123.529,151.200 123.696 C 151.200 123.863,150.300 124.000,149.200 124.000 C 148.100 124.000,147.200 124.180,147.200 124.400 C 147.200 124.620,146.379 124.800,145.376 124.800 C 144.344 124.800,143.653 124.963,143.785 125.175 C 143.914 125.385,143.587 125.472,143.039 125.373 C 142.501 125.275,141.818 125.439,141.521 125.736 C 141.224 126.033,140.548 126.211,140.019 126.130 C 139.490 126.049,138.930 126.190,138.774 126.442 C 138.618 126.694,138.028 126.900,137.462 126.900 C 136.896 126.900,136.471 127.097,136.517 127.337 C 136.563 127.578,136.110 127.760,135.511 127.743 C 134.911 127.725,134.517 127.866,134.634 128.055 C 134.837 128.383,133.976 128.570,132.900 128.430 C 132.625 128.394,132.400 128.553,132.400 128.782 C 132.400 129.012,132.051 129.200,131.624 129.200 C 131.197 129.200,130.736 129.380,130.600 129.600 C 130.464 129.820,130.031 130.000,129.638 130.000 C 129.245 130.000,128.598 130.360,128.200 130.800 C 127.802 131.240,127.069 131.600,126.571 131.600 C 126.074 131.600,125.607 131.742,125.533 131.914 C 125.289 132.490,122.886 134.000,122.215 134.000 C 121.851 134.000,121.664 134.180,121.800 134.400 C 121.936 134.620,121.767 134.800,121.424 134.800 C 121.081 134.800,120.800 134.980,120.800 135.200 C 120.800 135.420,120.506 135.600,120.147 135.600 C 119.788 135.600,119.203 135.926,118.847 136.325 C 118.143 137.114,114.615 139.600,114.199 139.600 C 114.058 139.600,113.673 139.870,113.343 140.200 C 113.013 140.530,112.859 140.800,113.000 140.800 C 113.375 140.800,112.374 141.699,111.067 142.536 C 109.181 143.744,106.792 146.064,107.033 146.453 C 107.158 146.655,107.021 146.770,106.730 146.710 C 106.438 146.649,106.245 146.825,106.300 147.100 C 106.355 147.375,106.160 147.600,105.868 147.600 C 105.575 147.600,105.094 148.050,104.800 148.600 C 104.506 149.150,104.115 149.600,103.932 149.600 C 103.750 149.600,103.600 149.870,103.600 150.200 C 103.600 150.530,103.448 150.800,103.261 150.800 C 102.661 150.800,101.337 152.164,100.659 153.480 C 100.297 154.184,99.775 154.904,99.499 155.080 C 99.224 155.256,98.729 155.940,98.399 156.600 C 98.070 157.260,97.305 158.309,96.700 158.931 C 96.095 159.553,95.600 160.418,95.600 160.854 C 95.600 161.290,95.440 161.549,95.245 161.428 C 94.873 161.198,94.269 162.640,94.376 163.506 C 94.410 163.785,94.204 163.965,93.919 163.906 C 93.634 163.848,93.400 164.070,93.400 164.400 C 93.400 164.730,93.310 165.090,93.200 165.200 C 92.722 165.678,92.000 167.239,92.000 167.795 C 92.000 168.128,91.809 168.400,91.576 168.400 C 91.343 168.400,91.248 168.553,91.364 168.741 C 91.480 168.929,91.316 169.424,91.000 169.841 C 90.684 170.258,90.420 171.005,90.413 171.500 C 90.406 171.995,90.220 172.400,90.000 172.400 C 89.780 172.400,89.600 172.861,89.600 173.424 C 89.600 174.004,89.427 174.340,89.200 174.200 C 88.974 174.060,88.800 174.388,88.800 174.953 C 88.800 175.503,88.620 176.064,88.400 176.200 C 88.180 176.336,88.000 176.887,88.000 177.424 C 88.000 177.961,87.820 178.400,87.600 178.400 C 87.380 178.400,87.200 179.030,87.200 179.800 C 87.200 180.570,87.057 181.200,86.882 181.200 C 86.707 181.200,86.519 181.860,86.465 182.666 C 86.411 183.472,86.246 184.326,86.099 184.564 C 85.715 185.185,85.163 188.564,84.932 191.700 C 84.823 193.185,84.550 194.400,84.324 194.400 C 84.099 194.400,84.018 194.670,84.145 195.000 C 84.271 195.330,84.156 195.606,83.887 195.613 C 82.750 195.642,85.117 196.812,88.724 198.003 C 94.787 200.005,104.984 205.145,105.533 206.477 C 105.607 206.655,105.888 206.800,106.158 206.800 C 106.428 206.800,106.998 207.121,107.425 207.514 C 107.851 207.907,108.619 208.519,109.132 208.874 C 111.258 210.348,116.825 215.743,119.032 218.469 C 120.334 220.078,121.715 221.745,122.100 222.173 C 122.485 222.601,122.800 223.187,122.800 223.475 C 122.800 223.764,122.950 224.000,123.132 224.000 C 123.315 224.000,123.720 224.495,124.032 225.100 C 124.344 225.705,124.713 226.290,124.852 226.400 C 125.261 226.722,127.062 229.963,128.632 233.200 C 130.950 237.981,131.548 239.347,131.695 240.200 C 131.866 241.194,133.390 241.118,134.585 240.056 C 135.033 239.657,136.067 239.027,136.883 238.655 C 137.699 238.283,138.471 237.809,138.599 237.602 C 138.726 237.395,139.987 236.674,141.400 236.000 C 142.813 235.326,144.077 234.599,144.209 234.386 C 144.341 234.173,145.218 233.647,146.159 233.219 C 147.100 232.790,148.101 232.161,148.384 231.820 C 148.666 231.479,149.146 231.200,149.449 231.200 C 149.752 231.200,150.000 231.020,150.000 230.800 C 150.000 230.580,150.360 230.400,150.800 230.400 C 151.240 230.400,151.600 230.220,151.600 230.000 C 151.600 229.780,151.920 229.600,152.312 229.600 C 152.703 229.600,153.283 229.240,153.600 228.800 C 153.917 228.360,154.497 228.000,154.888 228.000 C 155.280 228.000,155.600 227.820,155.600 227.600 C 155.600 227.380,155.941 227.200,156.357 227.200 C 156.774 227.200,157.215 226.939,157.337 226.619 C 157.546 226.075,160.709 224.400,161.529 224.400 C 161.734 224.400,162.134 224.121,162.416 223.780 C 162.699 223.439,163.700 222.810,164.641 222.381 C 165.582 221.953,166.463 221.421,166.600 221.200 C 166.737 220.979,167.637 220.439,168.600 220.000 C 169.563 219.561,170.459 219.027,170.591 218.814 C 170.723 218.601,171.987 217.874,173.400 217.200 C 174.813 216.526,176.077 215.799,176.209 215.586 C 176.341 215.373,177.237 214.839,178.200 214.400 C 179.163 213.961,180.056 213.433,180.184 213.227 C 180.311 213.020,181.447 212.359,182.708 211.757 C 183.968 211.155,185.312 210.399,185.693 210.076 C 186.422 209.459,188.779 208.135,191.300 206.929 C 192.125 206.534,192.800 206.074,192.800 205.906 C 192.800 205.738,193.120 205.600,193.512 205.600 C 193.903 205.600,194.483 205.240,194.800 204.800 C 195.117 204.360,195.697 204.000,196.088 204.000 C 196.480 204.000,196.800 203.863,196.800 203.695 C 196.800 203.527,197.190 203.212,197.667 202.995 C 198.819 202.471,199.552 201.277,198.962 200.889 C 197.839 200.149,198.005 197.665,199.213 197.130 C 200.435 196.589,200.505 195.772,199.509 193.714 C 199.189 193.054,199.210 192.670,199.589 192.214 C 200.237 191.433,200.800 191.426,200.800 192.200 C 200.800 192.530,200.980 192.800,201.200 192.800 C 201.420 192.800,201.600 193.083,201.600 193.429 C 201.600 193.774,201.894 194.351,202.253 194.710 C 202.985 195.443,202.699 193.816,201.955 193.020 C 201.486 192.518,201.500 190.909,201.975 190.615 C 202.186 190.485,201.981 189.691,201.507 188.802 C 200.805 187.487,200.740 187.050,201.123 186.210 C 201.431 185.534,201.445 185.200,201.164 185.200 C 200.928 185.200,200.857 184.852,201.000 184.400 C 201.180 183.832,201.072 183.600,200.627 183.600 C 199.811 183.600,199.830 182.820,200.675 181.614 C 201.154 180.930,201.212 180.604,200.875 180.492 C 200.614 180.405,200.400 180.008,200.400 179.609 C 200.400 179.211,200.130 178.782,199.800 178.655 C 199.470 178.529,199.200 178.070,199.200 177.636 C 199.200 177.202,199.011 176.731,198.781 176.588 C 198.494 176.411,198.491 176.173,198.771 175.835 C 199.052 175.496,199.046 175.206,198.753 174.913 C 198.452 174.612,198.451 174.253,198.750 173.693 C 199.089 173.060,199.010 172.752,198.355 172.160 L 197.537 171.419 198.425 170.699 C 198.914 170.304,199.173 169.849,199.002 169.690 C 198.831 169.530,198.610 169.625,198.512 169.900 C 198.414 170.175,198.059 170.400,197.724 170.400 C 197.321 170.400,197.201 170.176,197.369 169.738 C 197.518 169.348,197.307 168.731,196.857 168.238 C 195.556 166.813,195.483 165.850,196.596 164.803 C 197.742 163.727,197.883 162.884,196.977 162.536 C 196.634 162.404,196.451 162.043,196.570 161.733 C 196.689 161.423,196.509 161.063,196.170 160.933 C 195.831 160.803,195.647 160.456,195.760 160.161 C 195.873 159.867,195.793 159.519,195.583 159.389 C 195.372 159.259,195.200 158.713,195.200 158.176 C 195.200 157.556,194.971 157.200,194.573 157.200 C 194.128 157.200,194.020 156.968,194.200 156.400 C 194.380 155.832,194.272 155.600,193.827 155.600 C 193.008 155.600,193.031 155.211,193.888 154.585 C 194.526 154.119,194.483 153.901,193.288 151.585 C 192.580 150.211,191.999 148.798,191.998 148.444 C 191.996 148.090,191.712 147.260,191.365 146.600 C 190.990 145.886,190.817 144.883,190.938 144.125 C 191.058 143.372,190.941 142.683,190.653 142.444 C 190.384 142.221,189.914 141.400,189.608 140.619 C 189.301 139.839,188.904 139.200,188.725 139.200 C 188.546 139.200,188.400 138.761,188.400 138.224 C 188.400 137.687,188.220 137.136,188.000 137.000 C 187.780 136.864,187.600 136.144,187.600 135.400 C 187.600 134.656,187.408 133.928,187.173 133.783 C 186.938 133.638,186.851 133.244,186.980 132.909 C 187.108 132.573,187.002 132.044,186.744 131.733 C 185.140 129.800,184.446 127.613,185.256 127.046 C 186.013 126.515,185.996 126.477,184.822 126.068 C 184.150 125.833,183.600 125.452,183.600 125.221 C 183.600 124.989,182.970 124.800,182.200 124.800 C 181.430 124.800,180.800 124.620,180.800 124.400 C 180.800 124.180,180.609 124.000,180.376 124.000 C 180.143 124.000,180.080 124.225,180.235 124.500 C 180.461 124.900,180.410 124.900,179.979 124.500 C 179.682 124.225,178.857 124.000,178.144 124.000 C 177.431 124.000,176.736 123.820,176.600 123.600 C 176.464 123.380,174.743 123.200,172.776 123.200 C 170.809 123.200,169.200 123.065,169.200 122.900 C 169.200 122.483,159.272 122.392,159.122 122.807 M375.900 143.499 C 378.595 143.568,383.005 143.568,385.700 143.499 C 388.395 143.430,386.190 143.373,380.800 143.373 C 375.410 143.373,373.205 143.430,375.900 143.499 M53.896 195.265 C 52.996 195.821,53.805 195.924,55.000 195.405 C 56.026 194.959,56.067 194.890,55.284 194.928 C 54.780 194.953,54.155 195.104,53.896 195.265 M50.400 196.000 C 50.400 196.501,50.824 196.501,51.600 196.000 C 52.085 195.686,52.028 195.611,51.300 195.606 C 50.805 195.603,50.400 195.780,50.400 196.000 M47.417 196.772 C 47.291 196.977,47.398 197.275,47.655 197.434 C 47.953 197.618,48.016 197.550,47.830 197.248 C 47.623 196.913,47.840 196.828,48.568 196.960 C 49.136 197.063,49.600 196.979,49.600 196.774 C 49.600 196.288,47.717 196.287,47.417 196.772 M44.987 197.621 C 44.859 197.827,45.077 197.876,45.479 197.732 C 45.876 197.589,46.059 197.628,45.886 197.817 C 45.713 198.007,44.933 198.119,44.153 198.066 C 43.256 198.006,42.829 198.123,42.991 198.385 C 43.210 198.740,42.704 198.894,41.745 198.766 C 41.604 198.747,41.379 198.886,41.245 199.074 C 40.880 199.585,38.873 200.400,37.981 200.400 C 37.552 200.400,37.200 200.536,37.200 200.702 C 37.200 200.869,36.615 201.254,35.900 201.558 C 35.185 201.863,34.120 202.556,33.533 203.100 C 32.894 203.691,32.267 203.965,31.971 203.782 C 31.653 203.585,31.578 203.641,31.762 203.938 C 31.942 204.230,31.745 204.400,31.227 204.400 C 30.776 204.400,30.182 204.760,29.907 205.200 C 29.632 205.640,29.110 206.000,28.747 206.000 C 28.383 206.000,27.972 206.296,27.833 206.657 C 27.695 207.019,27.467 207.200,27.326 207.060 C 27.186 206.920,26.820 207.164,26.513 207.603 C 26.206 208.041,25.772 208.400,25.549 208.400 C 25.326 208.400,24.908 208.625,24.620 208.900 C 24.333 209.175,23.726 209.658,23.270 209.973 C 22.815 210.288,22.533 210.692,22.644 210.871 C 22.755 211.050,22.385 211.406,21.823 211.663 C 21.260 211.919,20.782 212.325,20.760 212.564 C 20.738 212.804,19.523 214.090,18.060 215.422 C 16.597 216.754,15.337 218.014,15.260 218.222 C 15.183 218.430,14.969 218.559,14.785 218.508 C 14.601 218.458,14.134 219.133,13.748 220.008 C 13.362 220.884,12.811 221.600,12.523 221.600 C 12.235 221.600,12.000 221.950,12.000 222.377 C 12.000 222.805,11.620 223.420,11.157 223.745 C 10.693 224.070,10.436 224.535,10.586 224.778 C 10.740 225.027,10.629 225.172,10.330 225.110 C 10.027 225.047,9.847 225.287,9.911 225.670 C 9.971 226.038,9.809 226.471,9.549 226.632 C 9.234 226.826,9.174 226.736,9.368 226.362 C 9.528 226.053,9.376 226.149,9.030 226.576 C 8.683 227.004,8.400 227.589,8.400 227.876 C 8.400 228.164,8.220 228.400,8.000 228.400 C 7.780 228.400,7.600 228.861,7.600 229.424 C 7.600 229.987,7.457 230.359,7.283 230.251 C 7.109 230.144,6.937 230.445,6.901 230.922 C 6.865 231.398,6.648 231.851,6.418 231.927 C 6.188 232.004,6.000 232.462,6.000 232.945 C 6.000 233.428,5.644 234.080,5.209 234.394 C 4.627 234.813,4.548 235.046,4.909 235.276 C 5.294 235.521,5.292 235.589,4.900 235.594 C 4.625 235.597,4.400 235.834,4.400 236.120 C 4.400 236.856,3.459 238.793,3.100 238.797 C 2.935 238.799,2.800 239.340,2.800 240.000 C 2.800 240.660,2.620 241.200,2.400 241.200 C 2.180 241.200,2.000 241.830,2.000 242.600 C 2.000 243.370,1.857 244.000,1.682 244.000 C 1.507 244.000,1.318 244.670,1.263 245.488 C 1.208 246.306,1.025 247.071,0.856 247.188 C -0.209 247.923,-0.073 275.463,1.003 277.205 C 1.180 277.492,1.303 278.310,1.276 279.025 C 1.249 279.740,1.489 280.542,1.810 280.808 C 2.189 281.123,2.304 281.645,2.138 282.305 C 1.960 283.014,2.021 283.234,2.342 283.036 C 2.654 282.843,2.800 283.214,2.800 284.200 C 2.800 285.063,2.961 285.547,3.200 285.400 C 3.433 285.256,3.600 285.663,3.600 286.376 C 3.600 287.049,3.780 287.600,4.000 287.600 C 4.220 287.600,4.400 287.870,4.400 288.200 C 4.400 288.530,4.625 288.803,4.900 288.806 C 5.233 288.810,5.200 288.942,4.800 289.200 C 4.470 289.413,4.391 289.591,4.625 289.594 C 4.859 289.597,5.298 290.230,5.600 291.000 C 5.902 291.770,6.296 292.400,6.475 292.400 C 6.654 292.400,6.800 292.760,6.800 293.200 C 6.800 293.640,6.980 294.000,7.200 294.000 C 7.420 294.000,7.600 294.360,7.600 294.800 C 7.600 295.240,7.760 295.600,7.957 295.600 C 8.153 295.600,8.435 296.095,8.584 296.700 C 8.733 297.305,9.317 298.202,9.881 298.693 C 10.446 299.184,10.951 299.994,11.003 300.493 C 11.055 300.992,11.121 301.557,11.149 301.749 C 11.177 301.941,11.454 301.887,11.764 301.630 C 12.192 301.275,12.398 301.274,12.616 301.625 C 12.773 301.881,12.654 302.247,12.351 302.439 C 12.048 302.631,11.981 302.791,12.202 302.794 C 12.424 302.797,12.844 303.341,13.137 304.002 C 13.430 304.664,13.834 305.103,14.035 304.979 C 14.236 304.854,14.400 305.033,14.400 305.376 C 14.400 305.719,14.599 306.000,14.843 306.000 C 15.086 306.000,15.182 305.730,15.055 305.400 C 14.712 304.504,15.105 304.676,15.626 305.648 C 15.945 306.244,15.949 306.416,15.640 306.225 C 14.839 305.730,15.183 306.493,16.175 307.412 C 16.712 307.909,17.042 308.425,16.909 308.558 C 16.776 308.691,16.889 308.800,17.160 308.800 C 17.481 308.800,17.560 308.503,17.385 307.953 C 17.189 307.336,17.264 307.159,17.658 307.303 C 17.956 307.411,18.152 307.748,18.094 308.050 C 18.015 308.463,18.114 308.447,18.494 307.985 C 18.772 307.647,20.032 306.870,21.292 306.260 C 22.553 305.649,23.689 304.980,23.816 304.773 C 23.944 304.567,24.818 304.047,25.759 303.619 C 26.700 303.190,27.701 302.561,27.984 302.220 C 28.266 301.879,28.746 301.600,29.049 301.600 C 29.352 301.600,29.600 301.420,29.600 301.200 C 29.600 300.980,29.960 300.800,30.400 300.800 C 30.840 300.800,31.200 300.620,31.200 300.400 C 31.200 300.180,31.520 300.000,31.912 300.000 C 32.303 300.000,32.883 299.640,33.200 299.200 C 33.517 298.760,34.097 298.400,34.488 298.400 C 34.880 298.400,35.200 298.220,35.200 298.000 C 35.200 297.780,35.520 297.600,35.912 297.600 C 36.303 297.600,36.883 297.240,37.200 296.800 C 37.517 296.360,38.097 296.000,38.488 296.000 C 38.880 296.000,39.200 295.864,39.200 295.698 C 39.200 295.531,39.785 295.145,40.500 294.839 C 41.215 294.534,42.112 294.015,42.493 293.686 C 43.196 293.080,45.242 291.928,48.276 290.430 C 49.197 289.974,50.059 289.427,50.191 289.214 C 50.323 289.001,51.587 288.274,53.000 287.600 C 54.413 286.926,55.677 286.199,55.809 285.986 C 55.941 285.773,56.837 285.239,57.800 284.800 C 58.763 284.361,59.659 283.827,59.791 283.614 C 59.923 283.401,61.187 282.674,62.600 282.000 C 64.013 281.326,65.277 280.599,65.409 280.386 C 65.541 280.173,66.437 279.639,67.400 279.200 C 68.363 278.761,69.259 278.227,69.391 278.014 C 69.523 277.801,70.749 277.075,72.116 276.401 C 74.594 275.179,76.022 274.379,76.400 273.999 C 76.510 273.889,77.095 273.544,77.700 273.232 C 78.305 272.920,78.800 272.515,78.800 272.332 C 78.800 272.150,79.160 272.000,79.600 272.000 C 80.040 272.000,80.400 271.864,80.400 271.698 C 80.400 271.531,80.985 271.146,81.700 270.841 C 82.415 270.536,83.360 269.981,83.800 269.609 C 84.240 269.237,85.267 268.627,86.083 268.255 C 86.899 267.883,87.671 267.409,87.799 267.202 C 87.926 266.995,89.187 266.274,90.600 265.600 C 92.013 264.926,93.277 264.199,93.409 263.986 C 93.541 263.773,94.437 263.239,95.400 262.800 C 96.363 262.361,97.259 261.827,97.391 261.614 C 97.523 261.401,98.749 260.665,100.116 259.980 C 104.027 258.017,106.053 256.907,106.455 256.505 C 106.961 255.999,106.451 254.800,105.729 254.800 C 104.993 254.800,103.812 253.655,104.174 253.293 C 104.322 253.144,104.569 253.198,104.722 253.412 C 105.010 253.815,106.417 254.537,107.791 254.986 C 108.493 255.216,108.474 255.131,107.621 254.222 C 107.093 253.660,106.409 253.200,106.102 253.200 C 105.209 253.200,105.686 251.450,106.700 251.005 C 107.922 250.469,107.839 250.243,106.181 249.592 C 104.812 249.055,103.718 248.149,104.044 247.823 C 104.562 247.304,106.356 247.207,106.858 247.671 C 108.243 248.949,110.000 249.581,110.000 248.800 C 110.000 248.580,109.640 248.400,109.200 248.400 C 108.760 248.400,108.400 248.263,108.400 248.095 C 108.400 247.927,107.995 247.610,107.500 247.389 C 106.942 247.141,106.630 246.682,106.680 246.183 C 106.735 245.619,106.375 245.213,105.480 244.829 C 103.473 243.969,103.110 243.590,103.661 242.927 C 104.039 242.471,103.961 242.315,103.266 242.133 C 102.790 242.009,102.400 241.660,102.400 241.358 C 102.400 241.028,102.042 240.847,101.500 240.905 C 100.710 240.988,100.613 240.837,100.705 239.671 C 100.798 238.502,100.714 238.373,100.005 238.598 C 99.422 238.783,99.200 238.673,99.200 238.200 C 99.200 237.745,98.974 237.618,98.456 237.782 C 98.027 237.918,97.499 237.761,97.207 237.409 C 96.929 237.074,96.463 236.800,96.170 236.800 C 95.427 236.800,94.077 233.908,94.720 233.693 C 95.376 233.475,95.324 232.933,94.620 232.663 C 94.233 232.515,94.115 232.633,94.263 233.020 C 94.423 233.436,94.188 233.600,93.430 233.600 C 92.341 233.600,91.452 232.383,92.328 232.091 C 92.588 232.004,92.800 231.737,92.800 231.497 C 92.800 231.257,92.333 231.497,91.763 232.030 L 90.726 233.000 90.863 231.640 C 90.951 230.769,90.816 230.240,90.490 230.170 C 90.210 230.109,90.165 230.151,90.390 230.263 C 91.228 230.679,90.760 231.200,89.550 231.200 C 88.373 231.200,88.314 231.130,88.542 229.992 L 88.783 228.785 87.892 229.618 C 86.793 230.645,86.313 229.629,87.389 228.554 C 88.223 227.720,87.950 226.973,86.856 227.095 C 86.307 227.156,86.000 226.967,86.000 226.568 C 86.000 226.128,85.766 226.020,85.200 226.200 C 84.632 226.380,84.400 226.272,84.400 225.827 C 84.400 225.482,84.158 225.200,83.862 225.200 C 83.566 225.200,82.996 224.837,82.595 224.394 C 82.143 223.895,81.587 223.677,81.133 223.821 C 80.652 223.974,80.400 223.854,80.400 223.474 C 80.400 223.154,80.010 222.791,79.534 222.667 C 78.866 222.492,78.769 222.319,79.111 221.908 C 79.456 221.492,79.272 221.255,78.277 220.830 C 77.574 220.531,76.640 219.997,76.200 219.643 C 74.998 218.677,73.683 218.000,73.009 218.000 C 72.678 218.000,72.182 217.640,71.907 217.200 C 71.632 216.760,71.193 216.400,70.931 216.400 C 70.668 216.400,70.340 216.040,70.200 215.600 C 70.060 215.160,69.710 214.800,69.422 214.800 C 69.134 214.800,68.671 214.527,68.394 214.193 C 68.117 213.859,67.240 213.289,66.445 212.927 C 65.650 212.565,64.640 211.963,64.200 211.591 C 63.760 211.219,62.815 210.664,62.100 210.359 C 61.385 210.054,60.800 209.574,60.800 209.292 C 60.800 209.011,60.395 208.602,59.900 208.385 C 58.202 207.640,56.200 206.351,55.536 205.575 C 55.171 205.149,54.596 204.800,54.259 204.800 C 53.923 204.800,53.536 204.620,53.400 204.400 C 53.264 204.180,52.823 204.000,52.419 204.000 C 52.016 204.000,51.585 203.739,51.463 203.419 C 51.340 203.100,50.450 202.478,49.485 202.039 C 48.520 201.599,47.499 200.961,47.216 200.620 C 46.934 200.279,46.484 200.000,46.218 200.000 C 45.565 200.000,45.579 198.748,46.239 197.984 C 46.693 197.459,46.657 197.359,45.994 197.310 C 45.566 197.277,45.113 197.417,44.987 197.621 M197.600 200.138 C 197.600 200.465,197.801 200.800,198.046 200.882 C 198.291 200.964,198.415 201.384,198.322 201.815 C 198.193 202.416,197.948 202.161,197.277 200.722 C 196.244 198.510,196.185 198.128,197.000 198.943 C 197.330 199.273,197.600 199.811,197.600 200.138 M305.716 252.763 C 305.362 253.330,304.494 253.539,301.572 253.759 C 299.539 253.913,297.556 254.210,297.164 254.419 C 296.773 254.629,295.911 254.800,295.250 254.800 C 294.588 254.800,293.936 254.980,293.800 255.200 C 293.664 255.420,293.201 255.600,292.771 255.600 C 292.341 255.600,291.677 255.759,291.295 255.953 C 290.913 256.148,290.150 256.489,289.600 256.711 C 278.119 261.358,268.813 270.018,263.713 280.800 C 262.725 282.890,261.755 284.913,261.558 285.295 C 261.361 285.677,261.200 286.341,261.200 286.771 C 261.200 287.201,261.041 287.651,260.846 287.771 C 260.651 287.892,260.375 288.577,260.231 289.295 C 260.087 290.013,259.783 291.500,259.554 292.600 C 259.325 293.700,259.048 295.598,258.938 296.817 L 258.737 299.034 261.069 299.766 C 264.681 300.899,270.726 303.983,271.133 304.900 C 271.207 305.065,271.477 305.204,271.733 305.209 C 272.367 305.222,276.890 309.213,279.218 311.815 C 282.590 315.583,287.985 324.501,287.997 326.327 C 288.001 326.975,289.479 326.578,290.365 325.692 C 290.697 325.360,291.542 324.849,292.244 324.556 C 292.946 324.262,293.763 323.786,294.060 323.498 C 294.357 323.209,295.632 322.473,296.892 321.861 C 298.153 321.249,299.289 320.580,299.416 320.373 C 299.544 320.167,300.437 319.639,301.400 319.200 C 302.363 318.761,303.259 318.227,303.391 318.014 C 303.523 317.801,304.787 317.074,306.200 316.400 C 307.613 315.726,308.877 314.999,309.009 314.786 C 309.141 314.573,310.037 314.039,311.000 313.600 C 311.963 313.161,312.859 312.627,312.991 312.414 C 313.123 312.201,314.370 311.482,315.763 310.818 C 317.155 310.153,318.510 309.349,318.775 309.031 C 319.039 308.712,319.770 308.338,320.400 308.200 C 321.030 308.062,321.775 307.671,322.056 307.333 C 322.337 306.994,322.980 306.560,323.484 306.368 C 324.009 306.169,324.400 305.685,324.400 305.236 C 324.400 304.805,324.608 303.945,324.863 303.326 C 325.118 302.707,325.380 301.587,325.445 300.837 C 325.640 298.582,326.004 298.027,326.520 299.200 C 326.956 300.193,326.960 300.191,327.110 298.831 C 327.193 298.078,327.031 297.031,326.750 296.506 C 326.336 295.733,326.335 295.395,326.747 294.737 C 327.173 294.054,327.144 293.801,326.563 293.159 C 326.183 292.739,325.989 292.278,326.132 292.134 C 326.276 291.991,326.204 291.646,325.973 291.367 C 325.268 290.519,325.156 287.600,325.827 287.600 C 326.658 287.600,326.530 286.927,325.655 286.699 C 325.246 286.591,324.616 285.913,324.255 285.190 C 323.457 283.590,323.457 283.600,324.200 283.600 C 324.530 283.600,324.800 283.420,324.800 283.200 C 324.800 282.980,324.530 282.800,324.200 282.800 C 323.504 282.800,323.421 282.339,324.012 281.748 C 324.294 281.466,324.232 280.969,323.814 280.168 C 323.479 279.526,323.204 278.631,323.202 278.180 C 323.201 277.729,322.992 277.152,322.739 276.899 C 322.485 276.645,322.292 275.901,322.311 275.245 C 322.330 274.589,322.087 273.839,321.773 273.577 C 321.458 273.316,321.200 272.762,321.200 272.346 C 321.200 271.930,321.041 271.277,320.846 270.895 C 320.340 269.899,318.410 264.054,318.042 262.400 C 317.871 261.630,317.251 260.061,316.665 258.913 C 316.079 257.766,315.600 256.471,315.600 256.037 C 315.600 255.603,315.404 255.126,315.165 254.978 C 314.926 254.831,314.824 254.352,314.938 253.915 C 315.052 253.478,315.046 253.221,314.923 253.343 C 314.801 253.466,314.408 253.250,314.050 252.864 C 313.693 252.478,313.580 252.429,313.800 252.756 C 314.120 253.230,314.053 253.294,313.467 253.075 C 313.064 252.924,312.649 252.800,312.544 252.800 C 312.439 252.800,312.439 252.660,312.545 252.489 C 312.651 252.318,311.258 252.148,309.450 252.112 C 306.679 252.057,306.093 252.159,305.716 252.763 M229.374 302.308 C 228.040 302.909,226.471 303.715,225.888 304.100 C 225.305 304.485,224.703 304.800,224.551 304.800 C 221.371 304.800,208.000 321.291,208.000 325.213 C 208.000 325.620,207.820 326.064,207.600 326.200 C 207.380 326.336,207.200 326.761,207.200 327.144 C 207.200 328.209,206.262 329.993,205.700 329.997 C 205.412 329.999,205.200 330.508,205.200 331.200 C 205.200 331.860,205.014 332.400,204.787 332.400 C 204.516 332.400,204.389 335.077,204.417 340.200 C 204.442 344.679,204.618 348.000,204.830 348.000 C 205.034 348.000,205.200 348.885,205.200 349.967 C 205.200 351.048,205.378 351.993,205.597 352.067 C 205.815 352.140,206.033 352.682,206.081 353.271 C 206.130 353.860,206.312 354.255,206.485 354.148 C 206.658 354.040,206.800 354.424,206.800 355.000 C 206.800 355.690,206.958 355.950,207.262 355.762 C 207.550 355.583,207.615 355.652,207.434 355.945 C 207.274 356.203,207.553 357.076,208.053 357.885 C 208.553 358.694,208.927 359.770,208.885 360.276 C 208.840 360.824,209.010 361.157,209.305 361.098 C 209.577 361.044,209.776 361.308,209.747 361.684 C 209.718 362.061,209.891 362.331,210.131 362.284 C 210.371 362.238,210.597 362.642,210.633 363.183 C 210.669 363.724,210.903 364.234,211.152 364.317 C 211.401 364.400,211.505 364.631,211.382 364.830 C 211.259 365.028,211.440 365.083,211.784 364.951 C 212.227 364.781,212.341 364.888,212.176 365.319 C 212.026 365.710,212.239 366.022,212.771 366.191 C 213.227 366.336,213.600 366.632,213.600 366.851 C 213.600 367.069,213.392 367.119,213.138 366.962 C 212.866 366.793,212.784 366.851,212.940 367.103 C 213.085 367.337,213.511 367.484,213.887 367.428 C 214.983 367.268,215.620 368.095,214.847 368.675 C 214.295 369.089,214.348 369.128,215.200 368.940 C 216.525 368.648,220.323 366.849,220.616 366.373 C 220.744 366.167,221.637 365.639,222.600 365.200 C 223.563 364.761,224.456 364.233,224.584 364.027 C 224.711 363.820,225.847 363.159,227.108 362.557 C 228.368 361.955,229.712 361.199,230.093 360.876 C 230.827 360.254,232.628 359.255,236.684 357.220 C 238.051 356.535,239.274 355.805,239.401 355.598 C 239.529 355.391,240.301 354.917,241.117 354.545 C 241.933 354.173,242.960 353.563,243.400 353.191 C 243.840 352.819,244.785 352.264,245.500 351.959 C 246.215 351.654,246.800 351.269,246.800 351.102 C 246.800 350.936,247.120 350.800,247.512 350.800 C 247.903 350.800,248.483 350.440,248.800 350.000 C 249.117 349.560,249.697 349.200,250.088 349.200 C 250.480 349.200,250.800 349.020,250.800 348.800 C 250.800 348.580,251.120 348.400,251.512 348.400 C 251.903 348.400,252.483 348.040,252.800 347.600 C 253.117 347.160,253.697 346.800,254.088 346.800 C 254.480 346.800,254.800 346.664,254.800 346.498 C 254.800 346.331,255.385 345.945,256.100 345.639 C 256.815 345.334,257.712 344.815,258.093 344.486 C 258.823 343.857,260.587 342.876,264.684 340.820 C 266.051 340.135,267.274 339.405,267.401 339.198 C 267.529 338.991,268.301 338.511,269.117 338.131 C 272.022 336.778,273.289 335.520,272.272 335.000 C 271.627 334.671,271.415 334.223,271.459 333.277 C 271.498 332.422,271.333 332.000,270.959 332.000 C 270.236 332.000,270.252 331.691,271.015 330.928 C 271.569 330.374,271.709 330.403,272.415 331.217 C 272.847 331.715,273.200 331.950,273.200 331.740 C 273.200 331.222,270.671 328.800,270.131 328.800 C 269.894 328.800,269.597 328.283,269.470 327.652 C 269.344 327.021,268.917 326.388,268.520 326.246 C 266.178 325.405,264.433 323.327,265.323 322.437 C 265.639 322.121,265.636 322.000,265.313 322.000 C 265.068 322.000,264.796 322.212,264.709 322.472 C 264.617 322.749,264.255 322.830,263.831 322.667 C 263.243 322.442,263.201 322.281,263.604 321.795 C 263.904 321.434,263.935 321.200,263.682 321.200 C 263.454 321.200,263.196 321.412,263.109 321.672 C 262.816 322.551,261.600 321.658,261.600 320.564 C 261.600 319.721,261.489 319.594,261.063 319.948 C 260.388 320.508,260.000 320.137,260.000 318.933 C 260.000 318.204,259.781 318.000,259.000 318.000 C 258.450 318.000,257.999 317.775,257.997 317.500 C 257.994 316.896,255.821 315.600,254.812 315.600 C 254.392 315.600,254.112 315.331,254.144 314.958 C 254.175 314.605,253.660 314.016,253.000 313.648 C 250.943 312.503,249.438 311.489,248.400 310.548 C 247.850 310.050,246.770 309.379,246.000 309.056 C 245.230 308.734,244.164 308.004,243.630 307.435 C 243.097 306.866,242.444 306.400,242.179 306.400 C 241.915 306.400,241.462 306.116,241.174 305.769 C 240.886 305.422,239.829 304.701,238.825 304.168 C 237.821 303.634,236.534 302.825,235.965 302.370 C 234.335 301.064,232.182 301.044,229.374 302.308 M358.249 307.815 C 358.112 308.173,358.018 308.856,358.041 309.333 C 358.067 309.881,358.203 309.686,358.410 308.803 C 358.760 307.316,358.665 306.733,358.249 307.815 M19.100 309.476 C 18.715 309.576,18.400 309.809,18.400 309.992 C 18.400 310.175,18.760 310.231,19.200 310.116 C 19.640 310.001,20.000 309.748,20.000 309.553 C 20.000 309.359,19.955 309.221,19.900 309.246 C 19.845 309.272,19.485 309.375,19.100 309.476 M20.000 311.453 C 20.000 311.886,22.153 313.581,22.383 313.329 C 22.502 313.198,22.374 313.010,22.098 312.911 C 21.821 312.812,21.714 312.539,21.859 312.304 C 22.006 312.067,21.937 311.992,21.704 312.136 C 21.473 312.279,21.181 312.126,21.054 311.798 C 20.831 311.217,20.000 310.945,20.000 311.453 M27.600 317.800 C 27.600 318.167,27.794 318.402,28.030 318.323 C 28.267 318.245,28.460 318.009,28.460 317.800 C 28.460 317.591,28.267 317.356,28.030 317.277 C 27.794 317.198,27.600 317.433,27.600 317.800 M30.800 319.746 C 30.800 319.856,31.340 320.330,32.000 320.800 C 32.660 321.270,33.200 321.564,33.200 321.454 C 33.200 321.344,32.660 320.870,32.000 320.400 C 31.340 319.930,30.800 319.636,30.800 319.746 M271.476 335.019 C 271.817 335.360,271.992 335.741,271.867 335.867 C 271.636 336.097,270.400 335.053,270.400 334.629 C 270.400 334.224,270.841 334.384,271.476 335.019 M216.400 369.600 C 216.400 369.820,216.670 370.000,217.000 370.000 C 217.546 370.000,217.813 370.776,217.619 371.800 C 217.577 372.020,217.762 371.984,218.031 371.721 C 218.414 371.344,218.376 371.023,217.850 370.221 C 217.176 369.192,216.400 368.860,216.400 369.600 M219.470 373.438 C 219.596 373.766,219.794 373.940,219.910 373.823 C 220.026 373.707,220.374 373.925,220.683 374.306 C 221.192 374.936,221.206 374.921,220.833 374.147 C 220.351 373.146,219.110 372.500,219.470 373.438 " stroke="none" fill="#ecf4fc" fill-rule="evenodd"></path></g></svg>